<svg id="svg" version="1.1" xmlns="http://www.w3.org/2000/svg" xmlns:xlink="http://www.w3.org/1999/xlink" width="400" height="400" viewBox="0, 0, 400,400"><g id="svgg"><path id="path0" d="M191.094 0.155 C 191.982 0.194,193.435 0.194,194.323 0.155 C 195.211 0.116,194.484 0.084,192.708 0.084 C 190.932 0.084,190.206 0.116,191.094 0.155 M207.247 0.154 C 207.852 0.196,208.789 0.196,209.330 0.153 C 209.870 0.110,209.375 0.076,208.229 0.076 C 207.083 0.077,206.641 0.112,207.247 0.154 M186.719 0.360 C 187.148 0.405,187.852 0.405,188.281 0.360 C 188.711 0.315,188.359 0.278,187.500 0.278 C 186.641 0.278,186.289 0.315,186.719 0.360 M212.344 0.360 C 212.773 0.405,213.477 0.405,213.906 0.360 C 214.336 0.315,213.984 0.278,213.125 0.278 C 212.266 0.278,211.914 0.315,212.344 0.360 M183.281 0.567 C 183.654 0.614,184.263 0.614,184.635 0.567 C 185.008 0.521,184.703 0.483,183.958 0.483 C 183.214 0.483,182.909 0.521,183.281 0.567 M215.785 0.568 C 216.159 0.614,216.722 0.613,217.035 0.566 C 217.348 0.518,217.042 0.480,216.354 0.481 C 215.667 0.482,215.411 0.521,215.785 0.568 M180.888 0.774 C 181.205 0.822,181.674 0.821,181.930 0.772 C 182.186 0.722,181.927 0.683,181.354 0.685 C 180.781 0.686,180.572 0.727,180.888 0.774 M218.597 0.774 C 218.913 0.822,219.382 0.821,219.638 0.772 C 219.895 0.722,219.635 0.683,219.063 0.685 C 218.490 0.686,218.280 0.727,218.597 0.774 M178.597 0.983 C 178.913 1.031,179.382 1.029,179.638 0.980 C 179.895 0.931,179.635 0.891,179.063 0.893 C 178.490 0.894,178.280 0.935,178.597 0.983 M220.680 0.983 C 220.997 1.031,221.465 1.029,221.722 0.980 C 221.978 0.931,221.719 0.891,221.146 0.893 C 220.573 0.894,220.363 0.935,220.680 0.983 M176.305 1.191 C 176.622 1.239,177.090 1.238,177.347 1.188 C 177.603 1.139,177.344 1.100,176.771 1.101 C 176.198 1.103,175.988 1.143,176.305 1.191 M222.867 1.189 C 223.126 1.239,223.501 1.237,223.700 1.185 C 223.900 1.133,223.688 1.092,223.229 1.094 C 222.771 1.097,222.608 1.139,222.867 1.189 M174.325 1.397 C 174.584 1.447,174.959 1.445,175.159 1.393 C 175.358 1.341,175.146 1.300,174.688 1.303 C 174.229 1.305,174.066 1.348,174.325 1.397 M224.742 1.397 C 225.001 1.447,225.376 1.445,225.575 1.393 C 225.775 1.341,225.563 1.300,225.104 1.303 C 224.646 1.305,224.483 1.348,224.742 1.397 M172.552 1.602 C 172.753 1.654,173.081 1.654,173.281 1.602 C 173.482 1.550,173.318 1.507,172.917 1.507 C 172.516 1.507,172.352 1.550,172.552 1.602 M226.510 1.602 C 226.711 1.654,227.039 1.654,227.240 1.602 C 227.440 1.550,227.276 1.507,226.875 1.507 C 226.474 1.507,226.310 1.550,226.510 1.602 M170.885 1.810 C 171.086 1.863,171.414 1.863,171.615 1.810 C 171.815 1.758,171.651 1.715,171.250 1.715 C 170.849 1.715,170.685 1.758,170.885 1.810 M228.075 1.814 C 228.334 1.864,228.709 1.862,228.909 1.810 C 229.108 1.758,228.896 1.717,228.438 1.719 C 227.979 1.722,227.816 1.764,228.075 1.814 M169.427 2.019 C 169.628 2.071,169.956 2.071,170.156 2.019 C 170.357 1.966,170.193 1.923,169.792 1.923 C 169.391 1.923,169.227 1.966,169.427 2.019 M229.635 2.019 C 229.836 2.071,230.164 2.071,230.365 2.019 C 230.565 1.966,230.401 1.923,230.000 1.923 C 229.599 1.923,229.435 1.966,229.635 2.019 M231.094 2.227 C 231.294 2.279,231.622 2.279,231.823 2.227 C 232.023 2.175,231.859 2.132,231.458 2.132 C 231.057 2.132,230.893 2.175,231.094 2.227 M233.021 2.512 C 233.479 2.607,234.089 2.679,234.375 2.672 C 234.709 2.665,234.597 2.599,234.063 2.488 C 233.604 2.393,232.995 2.321,232.708 2.328 C 232.374 2.335,232.486 2.401,233.021 2.512 M236.250 3.036 C 236.995 3.189,237.792 3.307,238.021 3.299 C 238.250 3.290,237.828 3.159,237.083 3.006 C 236.339 2.853,235.542 2.735,235.313 2.743 C 235.083 2.751,235.505 2.883,236.250 3.036 M158.750 3.750 C 158.050 3.974,158.806 3.974,159.688 3.750 C 160.249 3.607,160.259 3.591,159.792 3.587 C 159.505 3.585,159.036 3.658,158.750 3.750 M242.390 4.189 C 243.418 4.408,244.352 4.556,244.466 4.518 C 244.704 4.439,241.303 3.739,240.833 3.771 C 240.661 3.782,241.362 3.971,242.390 4.189 M156.354 4.266 C 155.781 4.413,155.500 4.536,155.729 4.539 C 155.958 4.541,156.615 4.423,157.188 4.276 C 157.760 4.128,158.042 4.006,157.813 4.003 C 157.583 4.000,156.927 4.119,156.354 4.266 M153.958 4.792 C 153.546 4.924,153.524 4.958,153.854 4.958 C 154.083 4.958,154.505 4.883,154.792 4.792 C 155.204 4.660,155.226 4.625,154.896 4.625 C 154.667 4.625,154.245 4.700,153.958 4.792 M247.500 5.306 C 249.047 5.700,250.453 6.018,250.625 6.013 C 251.063 6.000,246.535 4.836,245.521 4.701 C 245.063 4.640,245.953 4.913,247.500 5.306 M152.083 5.208 C 151.671 5.340,151.649 5.375,151.979 5.375 C 152.208 5.375,152.630 5.300,152.917 5.208 C 153.329 5.076,153.351 5.042,153.021 5.042 C 152.792 5.042,152.370 5.117,152.083 5.208 M147.083 6.446 C 127.801 11.443,107.766 20.423,91.146 31.518 C 58.958 53.004,31.138 85.328,16.633 118.096 C 13.650 124.834,7.466 141.834,7.508 143.178 C 7.513 143.321,8.578 140.250,9.876 136.354 C 23.024 96.878,48.842 62.388,84.938 36.083 C 103.225 22.757,126.293 11.870,147.498 6.559 C 150.304 5.856,151.124 5.597,150.399 5.644 C 150.237 5.654,148.745 6.015,147.083 6.446 M251.059 6.123 C 251.218 6.273,256.091 7.520,256.177 7.434 C 256.224 7.387,255.151 7.054,253.793 6.695 C 251.399 6.062,250.877 5.952,251.059 6.123 M256.771 7.708 C 257.000 7.807,257.328 7.887,257.500 7.887 C 257.697 7.887,257.658 7.821,257.396 7.708 C 257.167 7.610,256.839 7.529,256.667 7.529 C 256.470 7.529,256.508 7.595,256.771 7.708 M260.000 8.660 C 261.203 9.048,262.271 9.340,262.373 9.309 C 262.580 9.245,258.332 7.906,258.013 7.935 C 257.903 7.945,258.797 8.271,260.000 8.660 M264.375 10.025 C 268.974 11.651,273.336 13.316,276.654 14.713 C 278.652 15.553,280.320 16.208,280.362 16.166 C 280.647 15.880,263.737 9.340,262.834 9.387 C 262.708 9.393,263.401 9.681,264.375 10.025 M281.563 16.753 C 282.135 17.039,284.620 18.243,287.083 19.430 C 333.582 41.826,372.755 85.987,389.508 134.896 C 390.568 137.990,391.440 140.420,391.447 140.296 C 391.464 139.967,388.331 130.756,387.130 127.604 C 369.392 81.058,327.859 37.106,282.708 17.102 C 280.767 16.242,280.177 16.062,281.563 16.753 M192.813 19.081 C 193.042 19.117,197.542 19.175,202.813 19.209 C 208.083 19.243,211.552 19.210,210.521 19.137 C 208.678 19.005,191.998 18.952,192.813 19.081 M189.115 19.319 C 189.602 19.363,190.398 19.363,190.885 19.319 C 191.372 19.275,190.974 19.239,190.000 19.239 C 189.026 19.239,188.628 19.275,189.115 19.319 M185.260 19.527 C 185.690 19.572,186.393 19.572,186.823 19.527 C 187.253 19.482,186.901 19.445,186.042 19.445 C 185.182 19.445,184.831 19.482,185.260 19.527 M213.594 19.524 C 213.909 19.572,214.424 19.572,214.740 19.524 C 215.055 19.476,214.797 19.437,214.167 19.437 C 213.536 19.437,213.279 19.476,213.594 19.524 M182.763 19.733 C 183.080 19.781,183.549 19.779,183.805 19.730 C 184.061 19.681,183.802 19.641,183.229 19.643 C 182.656 19.644,182.447 19.685,182.763 19.733 M216.302 19.733 C 216.617 19.780,217.133 19.780,217.448 19.733 C 217.763 19.685,217.505 19.646,216.875 19.646 C 216.245 19.646,215.987 19.685,216.302 19.733 M180.260 19.941 C 180.576 19.989,181.091 19.989,181.406 19.941 C 181.721 19.893,181.464 19.854,180.833 19.854 C 180.203 19.854,179.945 19.893,180.260 19.941 M218.597 19.941 C 218.913 19.989,219.382 19.988,219.638 19.938 C 219.895 19.889,219.635 19.850,219.063 19.851 C 218.490 19.853,218.280 19.893,218.597 19.941 M178.073 20.147 C 178.331 20.197,178.753 20.197,179.010 20.147 C 179.268 20.097,179.057 20.057,178.542 20.057 C 178.026 20.057,177.815 20.097,178.073 20.147 M220.784 20.147 C 221.043 20.197,221.418 20.195,221.617 20.143 C 221.816 20.091,221.604 20.050,221.146 20.053 C 220.688 20.055,220.525 20.098,220.784 20.147 M176.510 20.352 C 176.711 20.404,177.039 20.404,177.240 20.352 C 177.440 20.300,177.276 20.257,176.875 20.257 C 176.474 20.257,176.310 20.300,176.510 20.352 M223.229 20.426 C 224.660 20.649,225.850 20.631,224.583 20.406 C 224.068 20.314,223.318 20.245,222.917 20.252 C 222.320 20.262,222.377 20.294,223.229 20.426 M174.950 20.564 C 175.209 20.614,175.584 20.612,175.784 20.560 C 175.983 20.508,175.771 20.467,175.313 20.469 C 174.854 20.472,174.691 20.514,174.950 20.564 M173.385 20.769 C 173.586 20.821,173.914 20.821,174.115 20.769 C 174.315 20.716,174.151 20.673,173.750 20.673 C 173.349 20.673,173.185 20.716,173.385 20.769 M226.458 20.844 C 227.716 21.068,228.701 21.048,227.604 20.821 C 227.146 20.727,226.490 20.655,226.146 20.663 C 225.677 20.674,225.755 20.719,226.458 20.844 M171.825 20.981 C 172.084 21.031,172.459 21.029,172.659 20.976 C 172.858 20.924,172.646 20.884,172.188 20.886 C 171.729 20.888,171.566 20.931,171.825 20.981 M228.802 21.185 C 229.003 21.238,229.331 21.238,229.531 21.185 C 229.732 21.133,229.568 21.090,229.167 21.090 C 228.766 21.090,228.602 21.133,228.802 21.185 M231.354 21.573 C 232.156 21.725,233.000 21.844,233.229 21.837 C 233.458 21.831,233.036 21.700,232.292 21.547 C 231.547 21.395,230.703 21.276,230.417 21.283 C 230.130 21.291,230.552 21.421,231.354 21.573 M235.417 22.303 C 236.391 22.516,237.375 22.684,237.604 22.678 C 237.833 22.671,237.224 22.492,236.250 22.280 C 235.276 22.068,234.292 21.899,234.063 21.906 C 233.833 21.912,234.443 22.091,235.417 22.303 M162.501 22.454 C 161.643 22.633,161.036 22.811,161.153 22.850 C 161.270 22.888,162.207 22.741,163.235 22.523 C 164.263 22.304,164.870 22.126,164.583 22.127 C 164.297 22.129,163.360 22.276,162.501 22.454 M240.104 23.234 C 240.677 23.381,241.333 23.500,241.563 23.497 C 241.792 23.494,241.510 23.372,240.938 23.224 C 240.365 23.077,239.708 22.959,239.479 22.961 C 239.250 22.964,239.531 23.087,240.104 23.234 M155.040 24.097 C 153.400 24.504,152.097 24.874,152.142 24.920 C 152.188 24.966,153.717 24.635,155.540 24.184 C 157.363 23.734,158.667 23.363,158.438 23.361 C 158.208 23.359,156.679 23.691,155.040 24.097 M243.021 23.869 C 243.594 24.028,244.203 24.152,244.375 24.144 C 244.547 24.136,244.219 23.999,243.646 23.840 C 243.073 23.680,242.464 23.556,242.292 23.564 C 242.120 23.572,242.448 23.709,243.021 23.869 M245.104 24.375 C 245.333 24.473,245.708 24.551,245.938 24.548 C 246.272 24.543,246.252 24.509,245.833 24.375 C 245.121 24.147,244.573 24.147,245.104 24.375 M246.458 24.634 C 246.615 24.799,252.129 26.274,252.225 26.177 C 252.271 26.131,251.250 25.805,249.957 25.451 C 247.119 24.676,246.321 24.489,246.458 24.634 M150.417 25.313 C 149.444 25.687,149.864 25.694,151.042 25.323 C 151.557 25.161,151.792 25.029,151.563 25.030 C 151.333 25.031,150.818 25.158,150.417 25.313 M147.604 26.136 C 146.802 26.405,146.240 26.633,146.354 26.642 C 146.469 26.651,147.266 26.434,148.125 26.159 C 148.984 25.884,149.547 25.656,149.375 25.652 C 149.203 25.649,148.406 25.866,147.604 26.136 M257.292 27.903 C 312.720 46.476,358.637 94.218,373.973 149.218 C 374.348 150.563,374.695 151.624,374.745 151.575 C 375.060 151.260,371.065 139.035,368.648 132.917 C 352.848 92.915,319.332 56.653,280.000 37.006 C 272.117 33.068,254.696 26.213,252.682 26.256 C 252.525 26.260,254.599 27.001,257.292 27.903 M144.167 27.188 C 143.422 27.456,142.911 27.683,143.032 27.692 C 143.153 27.701,143.903 27.481,144.699 27.203 C 145.495 26.925,146.005 26.698,145.833 26.698 C 145.661 26.699,144.911 26.919,144.167 27.188 M140.417 28.363 C 117.854 36.402,98.558 47.741,81.667 62.889 C 80.578 63.865,79.596 64.742,79.484 64.837 C 79.273 65.017,164.722 150.629,165.104 150.620 C 165.219 150.618,166.391 149.910,167.708 149.049 C 171.713 146.430,177.271 143.813,181.626 142.496 C 182.462 142.243,183.103 141.991,183.048 141.937 C 182.403 141.292,171.327 146.313,167.045 149.192 L 165.153 150.465 122.420 107.720 L 79.688 64.975 80.625 64.122 C 97.380 48.873,118.410 36.249,138.854 29.167 C 142.518 27.898,142.927 27.737,142.500 27.734 C 142.328 27.733,141.391 28.016,140.417 28.363 M62.620 81.917 C 47.231 99.391,35.182 120.056,28.247 140.871 C 26.814 145.169,24.712 152.296,24.509 153.542 L 24.390 154.271 24.622 153.542 C 24.749 153.141,25.356 151.048,25.971 148.892 C 31.757 128.598,40.608 110.844,53.569 93.537 C 58.072 87.524,64.478 79.792,64.957 79.792 C 65.038 79.792,84.307 98.994,107.777 122.464 L 150.449 165.137 148.756 167.725 C 145.222 173.126,141.796 181.163,141.165 185.535 L 141.046 186.354 141.260 185.625 C 141.378 185.224,141.761 183.865,142.112 182.604 C 143.600 177.261,145.971 172.249,149.538 166.911 L 150.697 165.176 107.787 122.266 L 64.876 79.355 62.620 81.917 M198.385 139.738 C 199.273 139.777,200.727 139.777,201.615 139.738 C 202.503 139.699,201.776 139.667,200.000 139.667 C 198.224 139.667,197.497 139.699,198.385 139.738 M193.910 139.943 C 194.284 139.989,194.847 139.988,195.160 139.941 C 195.473 139.893,195.167 139.855,194.479 139.856 C 193.792 139.857,193.536 139.896,193.910 139.943 M204.743 139.943 C 205.118 139.989,205.680 139.988,205.993 139.941 C 206.306 139.893,206.000 139.855,205.313 139.856 C 204.625 139.857,204.369 139.896,204.743 139.943 M192.034 140.147 C 192.293 140.197,192.668 140.195,192.867 140.143 C 193.066 140.091,192.854 140.050,192.396 140.053 C 191.938 140.055,191.775 140.098,192.034 140.147 M207.813 140.218 C 209.243 140.441,210.433 140.423,209.167 140.198 C 208.651 140.106,207.901 140.036,207.500 140.043 C 206.904 140.053,206.961 140.085,207.813 140.218 M189.479 140.417 L 188.854 140.576 189.479 140.580 C 189.823 140.582,190.339 140.508,190.625 140.417 L 191.146 140.250 190.625 140.254 C 190.339 140.256,189.823 140.329,189.479 140.417 M210.469 140.560 C 210.669 140.613,210.997 140.613,211.198 140.560 C 211.398 140.508,211.234 140.465,210.833 140.465 C 210.432 140.465,210.268 140.508,210.469 140.560 M186.354 141.035 C 184.428 141.531,185.061 141.541,187.188 141.048 C 188.104 140.835,188.620 140.661,188.333 140.660 C 188.047 140.660,187.156 140.828,186.354 141.035 M211.979 140.824 C 212.379 141.005,213.495 141.123,213.316 140.965 C 213.268 140.923,212.854 140.832,212.396 140.762 C 211.815 140.673,211.689 140.692,211.979 140.824 M391.512 140.990 C 391.568 141.190,391.971 142.642,392.408 144.215 C 392.845 145.788,393.241 147.036,393.289 146.989 C 393.399 146.879,391.654 140.625,391.514 140.625 C 391.456 140.625,391.456 140.789,391.512 140.990 M216.667 141.971 C 236.549 147.795,252.478 163.845,258.025 183.646 C 258.411 185.021,258.731 185.989,258.738 185.798 C 258.756 185.268,257.406 180.706,256.549 178.401 C 251.545 164.952,239.979 152.277,226.666 145.650 C 222.671 143.661,215.967 141.220,214.608 141.260 C 214.423 141.265,215.349 141.585,216.667 141.971 M6.894 145.331 C 6.645 146.324,6.480 147.174,6.527 147.221 C 6.573 147.268,6.815 146.494,7.064 145.502 C 7.313 144.509,7.479 143.659,7.432 143.612 C 7.385 143.565,7.143 144.339,6.894 145.331 M393.567 148.229 C 393.558 148.344,393.735 149.094,393.961 149.896 C 394.186 150.698,394.323 151.019,394.266 150.610 C 394.152 149.799,393.593 147.892,393.567 148.229 M5.558 150.466 C 5.366 151.231,5.217 151.978,5.227 152.126 C 5.237 152.274,5.423 151.740,5.639 150.938 C 5.855 150.135,6.004 149.388,5.969 149.277 C 5.935 149.166,5.750 149.701,5.558 150.466 M394.398 151.667 C 394.390 151.839,394.513 152.448,394.673 153.021 C 394.832 153.594,394.969 153.922,394.977 153.750 C 394.985 153.578,394.862 152.969,394.702 152.396 C 394.543 151.823,394.406 151.495,394.398 151.667 M374.797 151.997 C 374.808 152.372,376.004 156.765,376.023 156.496 C 376.044 156.182,375.012 152.026,374.879 151.893 C 374.831 151.845,374.794 151.891,374.797 151.997 M4.907 153.241 C 4.829 153.659,4.806 154.043,4.857 154.094 C 4.908 154.144,5.014 153.844,5.093 153.426 C 5.171 153.008,5.194 152.624,5.143 152.573 C 5.092 152.522,4.986 152.823,4.907 153.241 M395.042 154.479 C 395.042 154.708,395.117 155.130,395.208 155.417 C 395.340 155.829,395.375 155.851,395.375 155.521 C 395.375 155.292,395.300 154.870,395.208 154.583 C 395.076 154.171,395.042 154.149,395.042 154.479 M4.389 155.639 C 4.251 156.341,4.178 156.956,4.228 157.006 C 4.278 157.055,4.431 156.522,4.569 155.819 C 4.708 155.117,4.780 154.502,4.730 154.453 C 4.681 154.403,4.527 154.937,4.389 155.639 M23.765 156.369 C 23.622 157.009,23.545 157.573,23.594 157.622 C 23.643 157.671,23.800 157.187,23.943 156.548 C 24.087 155.908,24.164 155.344,24.114 155.295 C 24.065 155.246,23.908 155.729,23.765 156.369 M395.426 156.267 C 395.444 156.790,396.415 161.158,396.437 160.810 C 396.449 160.626,396.261 159.501,396.019 158.310 C 395.609 156.284,395.404 155.578,395.426 156.267 M376.064 157.083 C 376.056 157.255,376.180 157.865,376.340 158.438 C 376.499 159.010,376.636 159.339,376.644 159.167 C 376.652 158.995,376.528 158.385,376.369 157.813 C 376.209 157.240,376.072 156.911,376.064 157.083 M3.866 158.032 C 3.787 158.451,3.765 158.834,3.816 158.885 C 3.867 158.936,3.972 158.636,4.051 158.218 C 4.129 157.799,4.152 157.416,4.101 157.365 C 4.050 157.314,3.944 157.614,3.866 158.032 M22.932 160.224 C 22.678 161.498,22.511 162.580,22.559 162.629 C 22.608 162.678,22.856 161.675,23.110 160.401 C 23.363 159.127,23.531 158.045,23.482 157.996 C 23.434 157.947,23.186 158.950,22.932 160.224 M198.177 158.488 C 199.180 158.527,200.820 158.527,201.823 158.488 C 202.826 158.450,202.005 158.419,200.000 158.419 C 197.995 158.419,197.174 158.450,198.177 158.488 M194.219 158.691 C 194.534 158.739,195.049 158.739,195.365 158.691 C 195.680 158.643,195.422 158.604,194.792 158.604 C 194.161 158.604,193.904 158.643,194.219 158.691 M204.534 158.689 C 204.793 158.739,205.168 158.737,205.367 158.685 C 205.566 158.633,205.354 158.592,204.896 158.594 C 204.438 158.597,204.275 158.639,204.534 158.689 M206.458 158.889 C 221.063 161.205,233.423 171.371,238.965 185.625 C 239.433 186.828,239.757 187.539,239.686 187.204 C 238.175 180.069,230.500 170.147,222.313 164.745 C 217.828 161.786,209.476 158.632,206.512 158.778 C 205.957 158.806,205.955 158.810,206.458 158.889 M191.042 159.167 C 190.341 159.391,191.098 159.391,191.979 159.167 C 192.541 159.024,192.551 159.007,192.083 159.004 C 191.797 159.002,191.328 159.075,191.042 159.167 M2.933 163.229 C 2.561 165.465,2.291 167.393,2.331 167.514 C 2.371 167.635,2.715 165.846,3.095 163.537 C 3.474 161.229,3.745 159.301,3.696 159.252 C 3.647 159.203,3.304 160.993,2.933 163.229 M187.500 160.076 C 175.011 163.972,164.460 174.305,160.323 186.693 C 159.916 187.911,159.587 189.036,159.593 189.193 C 159.598 189.350,159.967 188.379,160.414 187.035 C 164.674 174.219,175.581 163.696,188.438 159.999 C 189.583 159.670,190.333 159.399,190.104 159.397 C 189.875 159.395,188.703 159.701,187.500 160.076 M376.908 160.833 C 376.900 161.005,377.075 161.943,377.296 162.917 C 377.516 163.891,377.649 164.266,377.591 163.750 C 377.468 162.673,376.928 160.365,376.908 160.833 M21.474 168.020 C 21.103 170.256,20.832 172.185,20.873 172.306 C 20.913 172.427,21.257 170.637,21.636 168.329 C 22.016 166.021,22.287 164.092,22.238 164.043 C 22.189 163.995,21.845 165.784,21.474 168.020 M377.758 165.208 C 377.758 165.495,377.829 166.010,377.917 166.354 C 378.059 166.912,378.076 166.923,378.076 166.458 C 378.076 166.172,378.004 165.656,377.917 165.313 C 377.775 164.755,377.758 164.744,377.758 165.208 M198.281 166.195 C 198.883 166.237,199.867 166.237,200.469 166.195 C 201.070 166.153,200.578 166.119,199.375 166.119 C 198.172 166.119,197.680 166.153,198.281 166.195 M195.573 166.397 C 195.831 166.447,196.253 166.447,196.510 166.397 C 196.768 166.347,196.557 166.307,196.042 166.307 C 195.526 166.307,195.315 166.347,195.573 166.397 M202.448 166.397 C 202.706 166.447,203.128 166.447,203.385 166.397 C 203.643 166.347,203.432 166.307,202.917 166.307 C 202.401 166.307,202.190 166.347,202.448 166.397 M397.340 166.875 C 397.340 167.276,397.383 167.440,397.435 167.240 C 397.488 167.039,397.488 166.711,397.435 166.510 C 397.383 166.310,397.340 166.474,397.340 166.875 M193.438 166.672 C 193.159 166.795,193.332 166.815,193.958 166.733 C 194.474 166.664,194.935 166.575,194.983 166.534 C 195.164 166.377,193.835 166.496,193.438 166.672 M205.417 166.874 C 211.068 168.269,215.163 171.517,217.227 176.244 C 217.603 177.107,217.913 177.676,217.914 177.510 C 217.928 175.854,214.510 171.231,212.023 169.543 C 209.864 168.076,205.689 166.423,204.275 166.473 C 204.044 166.482,204.557 166.662,205.417 166.874 M190.729 167.376 C 187.626 168.369,183.461 170.769,181.219 172.857 L 180.668 173.370 182.316 176.008 C 185.146 180.537,185.795 180.830,188.847 178.963 C 190.593 177.894,192.147 177.112,193.438 176.652 C 194.010 176.448,194.321 176.274,194.128 176.265 C 193.612 176.243,191.357 177.247,189.688 178.242 C 185.750 180.589,185.395 180.490,182.756 176.301 C 180.764 173.139,180.831 173.410,181.839 172.574 C 184.530 170.340,187.603 168.646,190.850 167.606 C 191.815 167.297,192.698 167.013,192.813 166.976 C 192.927 166.938,192.833 166.908,192.604 166.908 C 192.375 166.909,191.531 167.119,190.729 167.376 M397.757 169.583 C 397.757 169.984,397.800 170.148,397.852 169.948 C 397.904 169.747,397.904 169.419,397.852 169.219 C 397.800 169.018,397.757 169.182,397.757 169.583 M1.923 169.792 C 1.923 170.193,1.966 170.357,2.019 170.156 C 2.071 169.956,2.071 169.628,2.019 169.427 C 1.966 169.227,1.923 169.391,1.923 169.792 M378.578 170.000 C 378.571 170.286,378.643 170.896,378.738 171.354 C 378.849 171.889,378.915 172.001,378.922 171.667 C 378.929 171.380,378.857 170.771,378.762 170.313 C 378.651 169.778,378.585 169.666,378.578 170.000 M397.969 171.146 C 397.972 171.604,398.014 171.767,398.064 171.508 C 398.114 171.249,398.112 170.874,398.060 170.675 C 398.008 170.475,397.967 170.688,397.969 171.146 M1.715 171.250 C 1.715 171.651,1.758 171.815,1.810 171.615 C 1.863 171.414,1.863 171.086,1.810 170.885 C 1.758 170.685,1.715 170.849,1.715 171.250 M1.511 172.813 C 1.513 173.271,1.556 173.434,1.606 173.175 C 1.656 172.916,1.654 172.541,1.601 172.341 C 1.549 172.142,1.509 172.354,1.511 172.813 M398.173 172.708 C 398.173 173.109,398.216 173.273,398.269 173.073 C 398.321 172.872,398.321 172.544,398.269 172.344 C 398.216 172.143,398.173 172.307,398.173 172.708 M379.007 172.917 C 379.007 173.318,379.050 173.482,379.102 173.281 C 379.154 173.081,379.154 172.753,379.102 172.552 C 379.050 172.352,379.007 172.516,379.007 172.917 M20.673 173.333 C 20.673 173.734,20.716 173.898,20.769 173.698 C 20.821 173.497,20.821 173.169,20.769 172.969 C 20.716 172.768,20.673 172.932,20.673 173.333 M398.386 174.271 C 398.388 174.729,398.431 174.892,398.481 174.633 C 398.531 174.374,398.529 173.999,398.476 173.800 C 398.424 173.600,398.384 173.813,398.386 174.271 M1.303 174.479 C 1.305 174.938,1.348 175.100,1.397 174.841 C 1.447 174.582,1.445 174.207,1.393 174.008 C 1.341 173.809,1.300 174.021,1.303 174.479 M379.215 174.583 C 379.215 174.984,379.258 175.148,379.310 174.948 C 379.363 174.747,379.363 174.419,379.310 174.219 C 379.258 174.018,379.215 174.182,379.215 174.583 M20.465 175.000 C 20.465 175.401,20.508 175.565,20.560 175.365 C 20.613 175.164,20.613 174.836,20.560 174.635 C 20.508 174.435,20.465 174.599,20.465 175.000 M379.428 176.146 C 379.430 176.604,379.473 176.767,379.522 176.508 C 379.572 176.249,379.570 175.874,379.518 175.675 C 379.466 175.475,379.425 175.688,379.428 176.146 M398.594 176.146 C 398.597 176.604,398.639 176.767,398.689 176.508 C 398.739 176.249,398.737 175.874,398.685 175.675 C 398.633 175.475,398.592 175.688,398.594 176.146 M1.101 176.563 C 1.103 177.135,1.143 177.345,1.191 177.028 C 1.239 176.712,1.238 176.243,1.188 175.987 C 1.139 175.730,1.100 175.990,1.101 176.563 M20.261 176.563 C 20.263 177.021,20.306 177.184,20.356 176.925 C 20.406 176.666,20.404 176.291,20.351 176.091 C 20.299 175.892,20.259 176.104,20.261 176.563 M197.143 175.988 C 197.806 176.029,198.837 176.029,199.435 175.987 C 200.032 175.945,199.490 175.911,198.229 175.911 C 196.969 175.912,196.480 175.946,197.143 175.988 M194.844 176.185 C 195.044 176.238,195.372 176.238,195.573 176.185 C 195.773 176.133,195.609 176.090,195.208 176.090 C 194.807 176.090,194.643 176.133,194.844 176.185 M202.813 176.835 C 204.981 177.871,206.327 179.346,206.946 181.365 C 207.120 181.932,207.269 182.248,207.277 182.068 C 207.365 180.091,204.574 177.032,202.083 176.375 C 201.797 176.300,202.125 176.507,202.813 176.835 M398.807 177.917 C 398.807 178.432,398.847 178.643,398.897 178.385 C 398.947 178.128,398.947 177.706,398.897 177.448 C 398.847 177.190,398.807 177.401,398.807 177.917 M379.636 178.021 C 379.638 178.479,379.681 178.642,379.731 178.383 C 379.781 178.124,379.779 177.749,379.726 177.550 C 379.674 177.350,379.634 177.563,379.636 178.021 M20.057 178.333 C 20.057 178.849,20.097 179.060,20.147 178.802 C 20.197 178.544,20.197 178.122,20.147 177.865 C 20.097 177.607,20.057 177.818,20.057 178.333 M0.893 178.854 C 0.894 179.427,0.935 179.637,0.983 179.320 C 1.031 179.003,1.029 178.535,0.980 178.278 C 0.931 178.022,0.891 178.281,0.893 178.854 M218.053 178.646 C 218.123 179.104,218.215 179.518,218.257 179.566 C 218.415 179.745,218.296 178.629,218.115 178.229 C 217.984 177.939,217.965 178.065,218.053 178.646 M379.848 180.000 C 379.848 180.516,379.889 180.727,379.939 180.469 C 379.988 180.211,379.988 179.789,379.939 179.531 C 379.889 179.273,379.848 179.484,379.848 180.000 M399.018 180.104 C 399.019 180.677,399.060 180.887,399.108 180.570 C 399.156 180.253,399.154 179.785,399.105 179.528 C 399.056 179.272,399.016 179.531,399.018 180.104 M19.854 180.625 C 19.854 181.255,19.893 181.513,19.941 181.198 C 19.989 180.883,19.989 180.367,19.941 180.052 C 19.893 179.737,19.854 179.995,19.854 180.625 M218.382 180.417 C 218.382 180.818,218.425 180.982,218.477 180.781 C 218.529 180.581,218.529 180.253,218.477 180.052 C 218.425 179.852,218.382 180.016,218.382 180.417 M0.685 181.146 C 0.686 181.719,0.727 181.928,0.774 181.612 C 0.822 181.295,0.821 180.826,0.772 180.570 C 0.722 180.314,0.683 180.573,0.685 181.146 M380.060 182.188 C 380.061 182.760,380.102 182.970,380.149 182.653 C 380.197 182.337,380.196 181.868,380.147 181.612 C 380.097 181.355,380.058 181.615,380.060 182.188 M218.608 182.917 C 218.608 183.661,218.646 183.966,218.692 183.594 C 218.739 183.221,218.739 182.612,218.692 182.240 C 218.646 181.867,218.608 182.172,218.608 182.917 M399.229 182.708 C 399.229 183.339,399.268 183.596,399.316 183.281 C 399.364 182.966,399.364 182.451,399.316 182.135 C 399.268 181.820,399.229 182.078,399.229 182.708 M19.643 183.021 C 19.644 183.594,19.685 183.803,19.733 183.487 C 19.781 183.170,19.779 182.701,19.730 182.445 C 19.681 182.189,19.641 182.448,19.643 183.021 M0.481 183.646 C 0.482 184.333,0.521 184.589,0.568 184.215 C 0.614 183.841,0.613 183.278,0.566 182.965 C 0.518 182.652,0.480 182.958,0.481 183.646 M207.348 183.542 C 207.348 184.057,207.389 184.268,207.439 184.010 C 207.488 183.753,207.488 183.331,207.439 183.073 C 207.389 182.815,207.348 183.026,207.348 183.542 M380.273 184.688 C 380.274 185.375,380.313 185.631,380.359 185.257 C 380.406 184.882,380.405 184.320,380.357 184.007 C 380.310 183.694,380.272 184.000,380.273 184.688 M19.443 185.729 C 19.444 186.531,19.482 186.834,19.527 186.402 C 19.572 185.969,19.571 185.313,19.525 184.943 C 19.479 184.573,19.442 184.927,19.443 185.729 M399.443 185.729 C 399.444 186.531,399.482 186.834,399.527 186.402 C 399.572 185.969,399.571 185.313,399.525 184.943 C 399.479 184.573,399.442 184.927,399.443 185.729 M207.107 185.313 C 206.974 187.802,204.202 191.382,200.208 194.220 C 194.713 198.125,192.655 200.775,192.737 203.840 C 192.763 204.822,192.776 204.794,192.920 203.428 C 193.240 200.399,195.247 197.976,200.499 194.280 C 204.436 191.509,207.621 187.195,207.231 185.161 C 207.158 184.779,207.134 184.809,207.107 185.313 M218.365 185.331 C 218.139 189.982,215.076 194.519,209.167 198.957 C 205.026 202.067,203.084 204.130,203.143 205.356 C 203.154 205.584,203.228 205.507,203.332 205.159 C 203.804 203.593,204.758 202.612,208.854 199.484 C 213.894 195.636,215.411 194.004,216.980 190.742 C 217.823 188.988,218.612 186.115,218.483 185.263 C 218.397 184.697,218.395 184.698,218.365 185.331 M0.278 187.083 C 0.278 187.943,0.315 188.294,0.360 187.865 C 0.405 187.435,0.405 186.732,0.360 186.302 C 0.315 185.872,0.278 186.224,0.278 187.083 M258.795 186.563 C 258.798 186.792,258.871 187.260,258.958 187.604 C 259.101 188.166,259.118 188.176,259.121 187.708 C 259.123 187.422,259.050 186.953,258.958 186.667 C 258.828 186.259,258.792 186.236,258.795 186.563 M380.485 187.813 C 380.486 188.615,380.524 188.917,380.569 188.485 C 380.614 188.053,380.613 187.396,380.567 187.027 C 380.521 186.657,380.484 187.010,380.485 187.813 M19.239 189.583 C 19.239 190.557,19.275 190.956,19.319 190.469 C 19.363 189.982,19.363 189.185,19.319 188.698 C 19.275 188.211,19.239 188.609,19.239 189.583 M239.817 188.021 C 239.808 188.135,239.985 188.885,240.211 189.688 C 240.436 190.490,240.573 190.811,240.516 190.402 C 240.402 189.590,239.843 187.684,239.817 188.021 M399.657 189.688 C 399.657 190.719,399.692 191.167,399.736 190.683 C 399.779 190.200,399.780 189.356,399.737 188.808 C 399.694 188.261,399.658 188.656,399.657 189.688 M259.203 188.646 C 259.196 188.875,259.268 189.438,259.363 189.896 C 259.508 190.596,259.535 190.630,259.535 190.104 C 259.534 189.374,259.223 188.005,259.203 188.646 M0.079 191.458 C 0.079 192.776,0.113 193.315,0.154 192.656 C 0.195 191.997,0.195 190.919,0.154 190.260 C 0.113 189.602,0.079 190.141,0.079 191.458 M159.282 190.324 C 159.204 190.742,159.181 191.126,159.232 191.177 C 159.283 191.228,159.389 190.927,159.468 190.509 C 159.546 190.091,159.569 189.707,159.518 189.656 C 159.467 189.606,159.361 189.906,159.282 190.324 M140.257 190.417 C 140.257 190.818,140.300 190.982,140.352 190.781 C 140.404 190.581,140.404 190.253,140.352 190.052 C 140.300 189.852,140.257 190.016,140.257 190.417 M380.703 192.188 C 380.703 193.448,380.738 193.937,380.779 193.274 C 380.821 192.611,380.820 191.579,380.778 190.982 C 380.736 190.385,380.702 190.927,380.703 192.188 M259.632 191.458 C 259.632 191.859,259.675 192.023,259.727 191.823 C 259.779 191.622,259.779 191.294,259.727 191.094 C 259.675 190.893,259.632 191.057,259.632 191.458 M140.053 191.979 C 140.055 192.438,140.098 192.600,140.147 192.341 C 140.197 192.082,140.195 191.707,140.143 191.508 C 140.091 191.309,140.050 191.521,140.053 191.979 M158.854 192.500 C 158.773 193.088,158.751 193.612,158.805 193.666 C 158.859 193.720,158.967 193.281,159.045 192.691 C 159.123 192.101,159.146 191.576,159.094 191.525 C 159.043 191.474,158.935 191.912,158.854 192.500 M19.053 200.313 C 19.053 204.896,19.081 206.741,19.114 204.413 C 19.148 202.085,19.148 198.335,19.114 196.080 C 19.081 193.824,19.053 195.729,19.053 200.313 M259.848 193.125 C 259.848 193.641,259.889 193.852,259.939 193.594 C 259.988 193.336,259.988 192.914,259.939 192.656 C 259.889 192.398,259.848 192.609,259.848 193.125 M399.886 200.104 C 399.886 204.344,399.914 206.049,399.948 203.893 C 399.982 201.737,399.982 198.268,399.948 196.184 C 399.914 194.101,399.886 195.865,399.886 200.104 M139.851 194.063 C 139.853 194.635,139.893 194.845,139.941 194.528 C 139.989 194.212,139.988 193.743,139.938 193.487 C 139.889 193.230,139.850 193.490,139.851 194.063 M241.090 194.167 C 241.090 194.568,241.133 194.732,241.185 194.531 C 241.238 194.331,241.238 194.003,241.185 193.802 C 241.133 193.602,241.090 193.766,241.090 194.167 M158.594 194.688 C 158.597 195.146,158.639 195.309,158.689 195.050 C 158.739 194.791,158.737 194.416,158.685 194.216 C 158.633 194.017,158.592 194.229,158.594 194.688 M260.067 195.625 C 260.067 196.370,260.104 196.674,260.151 196.302 C 260.197 195.930,260.197 195.320,260.151 194.948 C 260.104 194.576,260.067 194.880,260.067 195.625 M241.307 196.042 C 241.307 196.557,241.347 196.768,241.397 196.510 C 241.447 196.253,241.447 195.831,241.397 195.573 C 241.347 195.315,241.307 195.526,241.307 196.042 M139.672 200.000 C 139.672 202.464,139.702 203.471,139.739 202.240 C 139.776 201.008,139.776 198.992,139.739 197.760 C 139.702 196.529,139.672 197.536,139.672 200.000 M158.400 197.083 C 158.400 197.828,158.438 198.133,158.484 197.760 C 158.530 197.388,158.530 196.779,158.484 196.406 C 158.438 196.034,158.400 196.339,158.400 197.083 M380.918 199.896 C 380.918 201.729,380.950 202.451,380.988 201.501 C 381.027 200.550,381.027 199.050,380.988 198.167 C 380.949 197.285,380.917 198.063,380.918 199.896 M241.538 199.896 C 241.538 201.271,241.572 201.806,241.613 201.086 C 241.654 200.365,241.653 199.240,241.612 198.586 C 241.571 197.931,241.537 198.521,241.538 199.896 M260.282 199.688 C 260.282 200.719,260.317 201.167,260.361 200.683 C 260.404 200.200,260.405 199.356,260.362 198.808 C 260.319 198.261,260.283 198.656,260.282 199.688 M158.403 202.917 C 158.403 203.776,158.440 204.128,158.485 203.698 C 158.530 203.268,158.530 202.565,158.485 202.135 C 158.440 201.706,158.403 202.057,158.403 202.917 M260.068 204.063 C 260.069 204.865,260.107 205.167,260.152 204.735 C 260.197 204.303,260.196 203.646,260.150 203.277 C 260.104 202.907,260.067 203.260,260.068 204.063 M241.312 203.958 C 241.312 204.589,241.351 204.846,241.399 204.531 C 241.447 204.216,241.447 203.701,241.399 203.385 C 241.351 203.070,241.312 203.328,241.312 203.958 M158.598 205.417 C 158.598 205.932,158.639 206.143,158.689 205.885 C 158.738 205.628,158.738 205.206,158.689 204.948 C 158.639 204.690,158.598 204.901,158.598 205.417 M139.851 205.938 C 139.853 206.510,139.893 206.720,139.941 206.403 C 139.989 206.087,139.988 205.618,139.938 205.362 C 139.889 205.105,139.850 205.365,139.851 205.938 M192.976 205.938 C 192.978 206.510,193.018 206.720,193.066 206.403 C 193.114 206.087,193.113 205.618,193.063 205.362 C 193.014 205.105,192.975 205.365,192.976 205.938 M380.704 207.292 C 380.704 208.609,380.738 209.148,380.779 208.490 C 380.820 207.831,380.820 206.753,380.779 206.094 C 380.738 205.435,380.704 205.974,380.704 207.292 M241.094 205.938 C 241.097 206.396,241.139 206.559,241.189 206.300 C 241.239 206.041,241.237 205.666,241.185 205.466 C 241.133 205.267,241.092 205.479,241.094 205.938 M259.851 206.771 C 259.853 207.344,259.893 207.553,259.941 207.237 C 259.989 206.920,259.988 206.451,259.938 206.195 C 259.889 205.939,259.850 206.198,259.851 206.771 M0.079 208.542 C 0.079 209.859,0.113 210.398,0.154 209.740 C 0.195 209.081,0.195 208.003,0.154 207.344 C 0.113 206.685,0.079 207.224,0.079 208.542 M193.185 208.021 C 193.186 208.594,193.227 208.803,193.274 208.487 C 193.322 208.170,193.321 207.701,193.272 207.445 C 193.222 207.189,193.183 207.448,193.185 208.021 M140.053 208.021 C 140.055 208.479,140.098 208.642,140.147 208.383 C 140.197 208.124,140.195 207.749,140.143 207.550 C 140.091 207.350,140.050 207.563,140.053 208.021 M159.004 208.125 C 159.002 208.411,159.075 208.880,159.167 209.167 C 159.391 209.867,159.391 209.110,159.167 208.229 C 159.024 207.668,159.007 207.657,159.004 208.125 M259.636 208.646 C 259.638 209.104,259.681 209.267,259.731 209.008 C 259.781 208.749,259.779 208.374,259.726 208.175 C 259.674 207.975,259.634 208.188,259.636 208.646 M202.404 209.487 C 202.323 210.132,202.301 210.703,202.353 210.756 C 202.406 210.809,202.516 210.325,202.596 209.679 C 202.677 209.034,202.699 208.463,202.647 208.410 C 202.594 208.358,202.484 208.842,202.404 209.487 M399.657 210.521 C 399.657 211.552,399.692 212.000,399.736 211.517 C 399.779 211.033,399.780 210.189,399.737 209.642 C 399.694 209.094,399.658 209.490,399.657 210.521 M140.223 209.271 C 140.198 209.834,141.092 214.534,141.174 214.271 C 141.210 214.156,141.015 212.891,140.741 211.458 C 140.467 210.026,140.234 209.042,140.223 209.271 M240.216 210.363 C 237.408 222.942,226.171 235.017,213.229 239.363 C 211.854 239.824,210.875 240.204,211.053 240.205 C 211.723 240.212,215.779 238.713,218.059 237.617 C 226.338 233.636,233.799 226.122,237.725 217.813 C 239.144 214.808,240.891 209.571,240.578 209.258 C 240.526 209.206,240.363 209.704,240.216 210.363 M193.390 210.208 C 193.390 210.724,193.431 210.935,193.480 210.677 C 193.530 210.419,193.530 209.997,193.480 209.740 C 193.431 209.482,193.390 209.693,193.390 210.208 M19.238 211.146 C 19.239 212.063,19.275 212.412,19.319 211.922 C 19.363 211.432,19.363 210.682,19.318 210.255 C 19.273 209.828,19.237 210.229,19.238 211.146 M159.410 210.104 C 159.407 210.333,159.485 210.708,159.583 210.938 C 159.811 211.468,159.811 210.921,159.583 210.208 C 159.449 209.790,159.415 209.769,159.410 210.104 M380.487 212.083 C 380.487 212.943,380.523 213.294,380.568 212.865 C 380.613 212.435,380.613 211.732,380.568 211.302 C 380.523 210.872,380.487 211.224,380.487 212.083 M159.807 211.594 C 159.772 212.137,161.352 216.252,162.388 218.312 C 166.531 226.557,173.818 233.770,181.979 237.709 C 184.154 238.758,188.798 240.425,189.493 240.406 C 189.715 240.399,189.146 240.171,188.229 239.898 C 175.614 236.142,164.785 225.782,160.525 213.394 C 160.139 212.272,159.816 211.462,159.807 211.594 M193.575 212.135 L 193.542 212.917 197.813 212.917 C 201.747 212.917,202.082 212.888,202.067 212.552 C 202.057 212.334,202.008 212.292,201.945 212.448 C 201.866 212.644,200.839 212.708,197.808 212.708 L 193.776 212.708 193.692 212.031 C 193.610 211.365,193.608 211.366,193.575 212.135 M0.278 213.333 C 0.278 214.193,0.315 214.544,0.360 214.115 C 0.405 213.685,0.405 212.982,0.360 212.552 C 0.315 212.122,0.278 212.474,0.278 213.333 M399.442 214.167 C 399.442 214.911,399.479 215.216,399.526 214.844 C 399.572 214.471,399.572 213.862,399.526 213.490 C 399.479 213.117,399.442 213.422,399.442 214.167 M258.370 215.036 C 258.115 216.080,257.944 216.972,257.990 217.018 C 258.036 217.064,258.284 216.250,258.542 215.208 C 258.799 214.167,258.970 213.275,258.921 213.227 C 258.872 213.178,258.624 213.992,258.370 215.036 M19.440 214.479 C 19.441 215.167,19.480 215.423,19.526 215.048 C 19.572 214.674,19.571 214.111,19.524 213.798 C 19.476 213.485,19.438 213.792,19.440 214.479 M380.271 215.208 C 380.271 215.839,380.310 216.096,380.358 215.781 C 380.405 215.466,380.405 214.951,380.358 214.635 C 380.310 214.320,380.271 214.578,380.271 215.208 M0.479 216.458 C 0.479 217.089,0.518 217.346,0.566 217.031 C 0.614 216.716,0.614 216.201,0.566 215.885 C 0.518 215.570,0.479 215.828,0.479 216.458 M19.646 217.083 C 19.646 217.714,19.685 217.971,19.733 217.656 C 19.780 217.341,19.780 216.826,19.733 216.510 C 19.685 216.195,19.646 216.453,19.646 217.083 M399.229 217.083 C 399.229 217.714,399.268 217.971,399.316 217.656 C 399.364 217.341,399.364 216.826,399.316 216.510 C 399.268 216.195,399.229 216.453,399.229 217.083 M141.790 216.875 C 142.427 220.274,146.115 228.379,148.996 232.711 C 156.881 244.567,169.236 254.036,181.585 257.687 C 184.080 258.425,183.590 258.158,180.521 257.108 C 162.861 251.065,148.686 236.853,142.679 219.167 C 142.115 217.505,141.715 216.474,141.790 216.875 M380.060 217.604 C 380.061 218.177,380.102 218.387,380.149 218.070 C 380.197 217.753,380.196 217.285,380.147 217.028 C 380.097 216.772,380.058 217.031,380.060 217.604 M257.017 219.637 C 255.407 224.381,253.328 228.605,250.593 232.694 L 249.139 234.868 292.042 277.771 L 334.945 320.674 336.899 318.432 C 352.966 300.004,364.390 280.414,371.703 258.750 C 373.565 253.235,376.174 243.834,375.993 243.292 C 375.957 243.183,375.659 244.202,375.331 245.557 C 369.055 271.511,355.910 296.297,336.787 318.229 C 335.988 319.146,335.257 319.987,335.162 320.099 C 334.998 320.292,249.583 235.091,249.583 234.734 C 249.583 234.645,250.087 233.836,250.703 232.937 C 253.549 228.781,258.257 218.616,257.869 217.464 C 257.838 217.371,257.455 218.349,257.017 219.637 M0.685 219.063 C 0.686 219.635,0.727 219.845,0.774 219.528 C 0.822 219.212,0.821 218.743,0.772 218.487 C 0.722 218.230,0.683 218.490,0.685 219.063 M19.848 219.375 C 19.848 219.891,19.889 220.102,19.939 219.844 C 19.988 219.586,19.988 219.164,19.939 218.906 C 19.889 218.648,19.848 218.859,19.848 219.375 M399.018 219.479 C 399.019 220.052,399.060 220.262,399.108 219.945 C 399.156 219.628,399.154 219.160,399.105 218.903 C 399.056 218.647,399.016 218.906,399.018 219.479 M379.848 219.792 C 379.848 220.307,379.889 220.518,379.939 220.260 C 379.988 220.003,379.988 219.581,379.939 219.323 C 379.889 219.065,379.848 219.276,379.848 219.792 M0.890 221.250 C 0.890 221.766,0.931 221.977,0.980 221.719 C 1.030 221.461,1.030 221.039,0.980 220.781 C 0.931 220.523,0.890 220.734,0.890 221.250 M20.053 221.354 C 20.055 221.813,20.098 221.975,20.147 221.716 C 20.197 221.457,20.195 221.082,20.143 220.883 C 20.091 220.684,20.050 220.896,20.053 221.354 M379.640 221.667 C 379.640 222.182,379.681 222.393,379.730 222.135 C 379.780 221.878,379.780 221.456,379.730 221.198 C 379.681 220.940,379.640 221.151,379.640 221.667 M398.807 221.667 C 398.807 222.182,398.847 222.393,398.897 222.135 C 398.947 221.878,398.947 221.456,398.897 221.198 C 398.847 220.940,398.807 221.151,398.807 221.667 M1.098 223.333 C 1.098 223.849,1.139 224.060,1.189 223.802 C 1.238 223.544,1.238 223.122,1.189 222.865 C 1.139 222.607,1.098 222.818,1.098 223.333 M20.261 223.229 C 20.263 223.688,20.306 223.850,20.356 223.591 C 20.406 223.332,20.404 222.957,20.351 222.758 C 20.299 222.559,20.259 222.771,20.261 223.229 M379.432 223.542 C 379.432 224.057,379.472 224.268,379.522 224.010 C 379.572 223.753,379.572 223.331,379.522 223.073 C 379.472 222.815,379.432 223.026,379.432 223.542 M398.598 223.542 C 398.598 224.057,398.639 224.268,398.689 224.010 C 398.738 223.753,398.738 223.331,398.689 223.073 C 398.639 222.815,398.598 223.026,398.598 223.542 M195.208 223.945 C 192.080 224.900,190.161 227.510,190.080 230.921 L 190.035 232.813 190.191 230.938 C 190.547 226.660,192.987 224.218,197.172 223.950 L 199.271 223.815 197.500 223.801 C 196.526 223.792,195.495 223.857,195.208 223.945 M200.540 224.574 C 202.184 225.397,203.639 226.908,204.274 228.453 C 204.553 229.132,204.784 229.538,204.787 229.356 C 204.812 227.644,201.241 223.958,199.557 223.958 C 199.420 223.958,199.862 224.235,200.540 224.574 M20.469 224.896 C 20.472 225.354,20.514 225.517,20.564 225.258 C 20.614 224.999,20.612 224.624,20.560 224.425 C 20.508 224.225,20.467 224.438,20.469 224.896 M1.303 225.104 C 1.305 225.563,1.348 225.725,1.397 225.466 C 1.447 225.207,1.445 224.832,1.393 224.633 C 1.341 224.434,1.300 224.646,1.303 225.104 M379.219 225.313 C 379.222 225.771,379.264 225.934,379.314 225.675 C 379.364 225.416,379.362 225.041,379.310 224.841 C 379.258 224.642,379.217 224.854,379.219 225.313 M398.390 225.417 C 398.390 225.932,398.431 226.143,398.480 225.885 C 398.530 225.628,398.530 225.206,398.480 224.948 C 398.431 224.690,398.390 224.901,398.390 225.417 M20.673 226.458 C 20.673 226.859,20.716 227.023,20.769 226.823 C 20.821 226.622,20.821 226.294,20.769 226.094 C 20.716 225.893,20.673 226.057,20.673 226.458 M1.511 226.979 C 1.513 227.438,1.556 227.600,1.606 227.341 C 1.656 227.082,1.654 226.707,1.601 226.508 C 1.549 226.309,1.509 226.521,1.511 226.979 M379.007 226.875 C 379.007 227.276,379.050 227.440,379.102 227.240 C 379.154 227.039,379.154 226.711,379.102 226.510 C 379.050 226.310,379.007 226.474,379.007 226.875 M398.178 227.188 C 398.180 227.646,398.223 227.809,398.272 227.550 C 398.322 227.291,398.320 226.916,398.268 226.716 C 398.216 226.517,398.175 226.729,398.178 227.188 M20.882 227.917 C 20.882 228.318,20.925 228.482,20.977 228.281 C 21.029 228.081,21.029 227.753,20.977 227.552 C 20.925 227.352,20.882 227.516,20.882 227.917 M378.798 228.333 C 378.798 228.734,378.841 228.898,378.894 228.698 C 378.946 228.497,378.946 228.169,378.894 227.969 C 378.841 227.768,378.798 227.932,378.798 228.333 M1.715 228.542 C 1.715 228.943,1.758 229.107,1.810 228.906 C 1.863 228.706,1.863 228.378,1.810 228.177 C 1.758 227.977,1.715 228.141,1.715 228.542 M397.965 228.958 C 397.965 229.359,398.008 229.523,398.060 229.323 C 398.113 229.122,398.113 228.794,398.060 228.594 C 398.008 228.393,397.965 228.557,397.965 228.958 M21.078 229.167 C 21.071 229.453,21.143 230.063,21.238 230.521 C 21.349 231.055,21.415 231.167,21.422 230.833 C 21.429 230.547,21.357 229.938,21.262 229.479 C 21.151 228.945,21.085 228.833,21.078 229.167 M1.923 230.208 C 1.923 230.609,1.966 230.773,2.019 230.573 C 2.071 230.372,2.071 230.044,2.019 229.844 C 1.966 229.643,1.923 229.807,1.923 230.208 M204.775 231.458 C 204.498 235.518,201.477 238.333,197.396 238.333 C 194.135 238.333,191.941 236.823,190.587 233.646 C 190.391 233.188,190.226 232.933,190.220 233.080 C 190.214 233.227,190.353 233.695,190.530 234.121 C 193.632 241.579,205.342 239.032,204.958 230.983 C 204.896 229.701,204.895 229.706,204.775 231.458 M397.761 230.521 C 397.763 230.979,397.806 231.142,397.856 230.883 C 397.906 230.624,397.904 230.249,397.851 230.050 C 397.799 229.850,397.759 230.063,397.761 230.521 M397.548 232.083 C 397.548 232.484,397.591 232.648,397.644 232.448 C 397.696 232.247,397.696 231.919,397.644 231.719 C 397.591 231.518,397.548 231.682,397.548 232.083 M378.030 232.614 C 377.951 233.145,377.928 233.622,377.980 233.675 C 378.032 233.727,378.140 233.334,378.220 232.803 C 378.299 232.272,378.322 231.794,378.270 231.742 C 378.218 231.690,378.110 232.082,378.030 232.614 M2.340 232.917 C 2.340 233.318,2.383 233.482,2.435 233.281 C 2.488 233.081,2.488 232.753,2.435 232.552 C 2.383 232.352,2.340 232.516,2.340 232.917 M21.716 233.125 C 21.716 233.411,21.788 233.927,21.875 234.271 C 22.017 234.828,22.034 234.840,22.034 234.375 C 22.034 234.089,21.962 233.573,21.875 233.229 C 21.733 232.672,21.716 232.660,21.716 233.125 M377.512 235.429 C 377.367 236.239,377.290 236.943,377.341 236.994 C 377.391 237.044,377.551 236.423,377.696 235.613 C 377.841 234.803,377.918 234.098,377.867 234.048 C 377.817 233.997,377.657 234.619,377.512 235.429 M396.989 235.114 C 396.909 235.645,396.886 236.122,396.938 236.175 C 396.991 236.227,397.098 235.834,397.178 235.303 C 397.258 234.772,397.280 234.294,397.228 234.242 C 397.176 234.190,397.068 234.582,396.989 235.114 M22.104 235.208 C 22.073 235.676,22.981 240.118,23.060 239.882 C 23.097 239.771,22.902 238.603,22.626 237.287 C 22.351 235.972,22.115 235.036,22.104 235.208 M2.966 236.667 C 2.966 236.953,3.038 237.469,3.125 237.813 C 3.267 238.370,3.284 238.381,3.284 237.917 C 3.284 237.630,3.212 237.115,3.125 236.771 C 2.983 236.213,2.966 236.202,2.966 236.667 M396.572 237.405 C 396.492 237.937,396.470 238.414,396.522 238.466 C 396.574 238.518,396.682 238.126,396.761 237.595 C 396.841 237.063,396.864 236.586,396.812 236.534 C 396.759 236.482,396.652 236.874,396.572 237.405 M376.681 239.597 C 376.542 240.299,376.470 240.914,376.520 240.964 C 376.569 241.014,376.723 240.480,376.861 239.778 C 376.999 239.076,377.072 238.461,377.022 238.411 C 376.972 238.361,376.819 238.895,376.681 239.597 M3.354 238.750 C 3.323 239.215,4.649 245.741,4.727 245.507 C 4.763 245.397,4.474 243.761,4.084 241.872 C 3.694 239.983,3.365 238.578,3.354 238.750 M208.646 240.625 C 208.079 240.769,208.069 240.785,208.542 240.794 C 208.828 240.800,209.250 240.723,209.479 240.625 C 209.993 240.404,209.513 240.404,208.646 240.625 M192.604 241.054 C 193.063 241.148,193.672 241.221,193.958 241.214 C 194.292 241.206,194.180 241.140,193.646 241.030 C 193.188 240.935,192.578 240.863,192.292 240.869 C 191.958 240.877,192.070 240.943,192.604 241.054 M23.375 241.563 C 23.375 241.792,23.450 242.214,23.542 242.500 C 23.674 242.912,23.708 242.934,23.708 242.604 C 23.708 242.375,23.633 241.953,23.542 241.667 C 23.410 241.254,23.375 241.233,23.375 241.563 M194.950 241.397 C 195.209 241.447,195.584 241.445,195.784 241.393 C 195.983 241.341,195.771 241.300,195.313 241.303 C 194.854 241.305,194.691 241.348,194.950 241.397 M204.115 241.397 C 204.372 241.447,204.794 241.447,205.052 241.397 C 205.310 241.347,205.099 241.307,204.583 241.307 C 204.068 241.307,203.857 241.347,204.115 241.397 M376.157 241.991 C 376.079 242.409,376.056 242.793,376.107 242.844 C 376.158 242.894,376.264 242.594,376.343 242.176 C 376.421 241.758,376.444 241.374,376.393 241.323 C 376.342 241.272,376.236 241.573,376.157 241.991 M198.281 241.613 C 199.227 241.652,200.773 241.652,201.719 241.613 C 202.664 241.575,201.891 241.543,200.000 241.543 C 198.109 241.543,197.336 241.575,198.281 241.613 M23.769 243.287 C 23.741 243.686,25.065 248.872,25.135 248.639 C 25.169 248.528,24.880 247.219,24.492 245.729 C 24.105 244.240,23.779 243.140,23.769 243.287 M394.907 245.741 C 394.829 246.159,394.806 246.543,394.857 246.594 C 394.908 246.644,395.014 246.344,395.093 245.926 C 395.171 245.508,395.194 245.124,395.143 245.073 C 395.092 245.022,394.986 245.323,394.907 245.741 M4.814 246.042 C 4.806 246.214,4.930 246.823,5.090 247.396 C 5.249 247.969,5.386 248.297,5.394 248.125 C 5.402 247.953,5.278 247.344,5.119 246.771 C 4.959 246.198,4.822 245.870,4.814 246.042 M394.390 248.036 C 394.247 248.676,394.170 249.239,394.219 249.288 C 394.268 249.337,394.425 248.854,394.568 248.214 C 394.712 247.574,394.789 247.011,394.739 246.962 C 394.690 246.913,394.533 247.396,394.390 248.036 M25.225 249.106 C 25.205 249.402,27.154 255.903,27.490 256.667 C 27.862 257.508,27.631 256.633,26.475 252.813 C 25.263 248.809,25.247 248.761,25.225 249.106 M232.522 250.635 C 229.116 252.889,224.002 255.448,220.038 256.882 C 218.814 257.325,217.925 257.692,218.063 257.698 C 219.591 257.762,228.600 253.500,232.975 250.642 C 233.867 250.060,234.664 249.583,234.746 249.583 C 234.829 249.583,254.101 268.788,277.574 292.261 L 320.251 334.939 318.362 336.607 C 299.610 353.176,277.127 365.981,254.948 372.723 C 253.717 373.097,252.750 373.444,252.799 373.493 C 252.921 373.615,256.506 372.492,260.417 371.106 C 279.509 364.342,296.806 354.646,312.188 342.085 C 315.831 339.110,320.417 335.191,320.417 335.052 C 320.417 334.887,234.963 249.165,234.818 249.184 C 234.746 249.194,233.713 249.847,232.522 250.635 M5.660 249.688 C 5.657 250.131,6.194 251.915,6.224 251.563 C 6.234 251.448,6.112 250.885,5.952 250.313 C 5.793 249.740,5.661 249.458,5.660 249.688 M6.384 252.500 C 7.195 257.492,12.517 272.589,16.894 282.315 C 37.641 328.418,80.317 368.917,127.188 386.982 C 132.749 389.125,143.636 392.683,143.882 392.437 C 143.934 392.385,143.211 392.136,142.274 391.883 C 121.826 386.365,97.667 373.879,78.646 358.998 C 44.020 331.908,18.931 295.955,8.037 257.813 C 7.317 255.292,6.623 252.901,6.496 252.500 L 6.265 251.771 6.384 252.500 M393.039 253.456 C 392.848 254.219,392.729 254.882,392.776 254.929 C 392.824 254.976,393.019 254.391,393.211 253.627 C 393.402 252.864,393.521 252.201,393.474 252.154 C 393.426 252.107,393.231 252.693,393.039 253.456 M392.185 256.612 C 386.318 278.450,373.569 303.033,358.015 322.500 C 332.645 354.253,302.771 375.986,266.477 389.094 C 264.118 389.946,262.469 390.585,262.813 390.514 C 265.193 390.024,276.759 385.460,283.646 382.293 C 330.222 360.876,369.991 318.224,387.768 270.625 C 390.033 264.559,392.905 255.544,392.653 255.292 C 392.604 255.243,392.393 255.837,392.185 256.612 M27.708 257.335 C 27.708 257.398,28.137 258.702,28.660 260.235 C 44.796 307.473,85.892 350.226,132.912 368.692 C 136.750 370.200,141.433 371.879,141.763 371.867 C 141.882 371.863,139.870 371.083,137.292 370.134 C 87.985 351.991,45.517 308.941,28.864 260.221 C 28.013 257.730,27.708 256.970,27.708 257.335 M216.771 257.917 C 216.508 258.030,216.470 258.096,216.667 258.096 C 216.839 258.096,217.167 258.015,217.396 257.917 C 217.658 257.804,217.697 257.738,217.500 257.738 C 217.328 257.738,217.000 257.818,216.771 257.917 M183.854 258.333 C 184.083 258.432,184.458 258.510,184.688 258.506 C 185.022 258.501,185.002 258.467,184.583 258.333 C 183.871 258.105,183.323 258.105,183.854 258.333 M214.375 258.542 C 213.956 258.676,213.936 258.710,214.271 258.715 C 214.500 258.718,214.875 258.640,215.104 258.542 C 215.635 258.314,215.087 258.314,214.375 258.542 M186.458 258.958 C 186.745 259.050,187.214 259.123,187.500 259.121 C 187.968 259.118,187.957 259.101,187.396 258.958 C 186.515 258.734,185.758 258.734,186.458 258.958 M211.771 259.067 C 211.026 259.223,210.773 259.331,211.146 259.332 C 211.490 259.334,212.240 259.215,212.813 259.067 C 214.151 258.723,213.404 258.723,211.771 259.067 M188.854 259.387 C 189.909 259.605,190.762 259.595,189.896 259.375 C 189.552 259.288,188.990 259.216,188.646 259.215 C 188.120 259.215,188.154 259.242,188.854 259.387 M190.885 259.727 C 191.086 259.779,191.414 259.779,191.615 259.727 C 191.815 259.675,191.651 259.632,191.250 259.632 C 190.849 259.632,190.685 259.675,190.885 259.727 M208.075 259.731 C 208.334 259.781,208.709 259.779,208.909 259.726 C 209.108 259.674,208.896 259.634,208.438 259.636 C 207.979 259.638,207.816 259.681,208.075 259.731 M192.450 259.939 C 192.709 259.989,193.084 259.987,193.284 259.935 C 193.483 259.883,193.271 259.842,192.813 259.844 C 192.354 259.847,192.191 259.889,192.450 259.939 M206.409 259.939 C 206.668 259.989,207.043 259.987,207.242 259.935 C 207.441 259.883,207.229 259.842,206.771 259.844 C 206.313 259.847,206.150 259.889,206.409 259.939 M194.427 260.149 C 194.742 260.197,195.258 260.197,195.573 260.149 C 195.888 260.101,195.630 260.062,195.000 260.062 C 194.370 260.062,194.112 260.101,194.427 260.149 M204.219 260.149 C 204.534 260.197,205.049 260.197,205.365 260.149 C 205.680 260.101,205.422 260.062,204.792 260.062 C 204.161 260.062,203.904 260.101,204.219 260.149 M198.187 260.363 C 199.080 260.403,200.486 260.402,201.312 260.363 C 202.137 260.323,201.406 260.291,199.688 260.292 C 197.969 260.292,197.293 260.324,198.187 260.363 M144.063 372.634 C 145.464 373.161,152.761 375.225,152.972 375.155 C 153.082 375.119,152.012 374.774,150.596 374.388 C 149.180 374.003,147.036 373.375,145.833 372.994 C 143.589 372.281,142.577 372.076,144.063 372.634 M251.563 373.750 C 251.300 373.863,251.261 373.929,251.458 373.929 C 251.630 373.929,251.958 373.848,252.188 373.750 C 252.450 373.637,252.489 373.571,252.292 373.571 C 252.120 373.571,251.792 373.652,251.563 373.750 M249.271 374.375 C 248.583 374.586,248.161 374.764,248.333 374.772 C 248.505 374.780,249.208 374.608,249.896 374.391 C 250.583 374.174,251.005 373.995,250.833 373.994 C 250.661 373.993,249.958 374.164,249.271 374.375 M245.938 375.221 C 245.135 375.436,242.853 375.963,240.865 376.393 C 238.878 376.823,237.347 377.206,237.464 377.245 C 237.708 377.326,245.670 375.574,247.083 375.129 C 248.447 374.698,247.643 374.763,245.938 375.221 M154.479 375.625 C 154.708 375.723,155.083 375.801,155.313 375.798 C 155.647 375.793,155.627 375.759,155.208 375.625 C 154.496 375.397,153.948 375.397,154.479 375.625 M158.125 376.471 C 158.984 376.684,159.828 376.851,160.000 376.843 C 160.442 376.821,157.485 376.075,156.979 376.080 C 156.750 376.083,157.266 376.259,158.125 376.471 M161.875 377.292 C 162.161 377.383,162.630 377.457,162.917 377.455 C 163.384 377.451,163.374 377.435,162.813 377.292 C 161.931 377.067,161.175 377.067,161.875 377.292 M235.521 377.500 C 234.963 377.642,234.952 377.659,235.417 377.659 C 235.703 377.659,236.219 377.587,236.563 377.500 C 237.120 377.358,237.131 377.341,236.667 377.341 C 236.380 377.341,235.865 377.413,235.521 377.500 M164.063 377.708 C 164.406 377.796,164.922 377.867,165.208 377.867 C 165.673 377.867,165.662 377.850,165.104 377.708 C 164.760 377.621,164.245 377.549,163.958 377.549 C 163.494 377.549,163.505 377.566,164.063 377.708 M232.708 378.021 C 232.078 378.167,231.750 378.293,231.979 378.301 C 232.208 378.309,232.958 378.188,233.646 378.033 C 234.333 377.878,234.661 377.752,234.375 377.753 C 234.089 377.754,233.339 377.875,232.708 378.021 M168.385 378.477 C 168.586 378.529,168.914 378.529,169.115 378.477 C 169.315 378.425,169.151 378.382,168.750 378.382 C 168.349 378.382,168.185 378.425,168.385 378.477 M228.333 378.750 C 227.780 378.866,227.730 378.907,228.125 378.919 C 228.411 378.927,229.021 378.857,229.479 378.762 C 230.174 378.618,230.208 378.590,229.688 378.593 C 229.344 378.595,228.734 378.666,228.333 378.750 M171.563 378.970 C 172.021 379.065,172.677 379.136,173.021 379.129 C 173.490 379.118,173.411 379.073,172.708 378.948 C 171.451 378.724,170.466 378.743,171.563 378.970 M174.010 379.310 C 174.211 379.363,174.539 379.363,174.740 379.310 C 174.940 379.258,174.776 379.215,174.375 379.215 C 173.974 379.215,173.810 379.258,174.010 379.310 M224.950 379.314 C 225.209 379.364,225.584 379.362,225.784 379.310 C 225.983 379.258,225.771 379.217,225.313 379.219 C 224.854 379.222,224.691 379.264,224.950 379.314 M175.677 379.519 C 175.878 379.571,176.206 379.571,176.406 379.519 C 176.607 379.466,176.443 379.423,176.042 379.423 C 175.641 379.423,175.477 379.466,175.677 379.519 M223.284 379.522 C 223.543 379.572,223.918 379.570,224.117 379.518 C 224.316 379.466,224.104 379.425,223.646 379.428 C 223.188 379.430,223.025 379.473,223.284 379.522 M177.347 379.733 C 177.663 379.781,178.132 379.779,178.388 379.730 C 178.645 379.681,178.385 379.641,177.813 379.643 C 177.240 379.644,177.030 379.685,177.347 379.733 M221.198 379.730 C 221.456 379.780,221.878 379.780,222.135 379.730 C 222.393 379.681,222.182 379.640,221.667 379.640 C 221.151 379.640,220.940 379.681,221.198 379.730 M179.325 379.939 C 179.584 379.989,179.959 379.987,180.159 379.935 C 180.358 379.883,180.146 379.842,179.688 379.844 C 179.229 379.847,179.066 379.889,179.325 379.939 M219.325 379.939 C 219.584 379.989,219.959 379.987,220.159 379.935 C 220.358 379.883,220.146 379.842,219.688 379.844 C 219.229 379.847,219.066 379.889,219.325 379.939 M181.510 380.149 C 181.826 380.197,182.341 380.197,182.656 380.149 C 182.971 380.101,182.714 380.062,182.083 380.062 C 181.453 380.062,181.195 380.101,181.510 380.149 M217.240 380.147 C 217.497 380.197,217.919 380.197,218.177 380.147 C 218.435 380.097,218.224 380.057,217.708 380.057 C 217.193 380.057,216.982 380.097,217.240 380.147 M183.802 380.358 C 184.117 380.405,184.633 380.405,184.948 380.358 C 185.263 380.310,185.005 380.271,184.375 380.271 C 183.745 380.271,183.487 380.310,183.802 380.358 M214.844 380.358 C 215.159 380.405,215.674 380.405,215.990 380.358 C 216.305 380.310,216.047 380.271,215.417 380.271 C 214.786 380.271,214.529 380.310,214.844 380.358 M186.610 380.567 C 186.980 380.613,187.636 380.614,188.068 380.569 C 188.501 380.524,188.198 380.486,187.396 380.485 C 186.594 380.484,186.240 380.521,186.610 380.567 M211.402 380.567 C 211.771 380.613,212.428 380.614,212.860 380.569 C 213.292 380.524,212.990 380.486,212.188 380.485 C 211.385 380.484,211.032 380.521,211.402 380.567 M190.581 380.779 C 191.302 380.820,192.427 380.820,193.081 380.779 C 193.735 380.738,193.146 380.704,191.771 380.705 C 190.396 380.705,189.860 380.739,190.581 380.779 M206.830 380.779 C 207.435 380.821,208.373 380.821,208.913 380.778 C 209.454 380.735,208.958 380.701,207.813 380.701 C 206.667 380.702,206.224 380.737,206.830 380.779 M197.355 380.989 C 198.593 381.026,200.562 381.026,201.730 380.989 C 202.898 380.952,201.885 380.921,199.479 380.922 C 197.073 380.922,196.117 380.952,197.355 380.989 M260.521 391.025 C 259.948 391.228,258.191 391.753,256.617 392.193 C 255.044 392.632,253.794 393.031,253.842 393.078 C 253.941 393.177,259.357 391.662,261.042 391.063 C 261.672 390.839,262.047 390.655,261.875 390.655 C 261.703 390.655,261.094 390.822,260.521 391.025 M144.479 392.708 C 144.708 392.807,145.036 392.887,145.208 392.887 C 145.405 392.887,145.367 392.821,145.104 392.708 C 144.875 392.610,144.547 392.529,144.375 392.529 C 144.178 392.529,144.217 392.595,144.479 392.708 M145.652 393.013 C 145.797 393.158,153.350 395.002,153.731 394.986 C 154.035 394.973,146.183 392.947,145.747 392.926 C 145.641 392.921,145.599 392.960,145.652 393.013 M250.417 393.854 C 249.443 394.119,248.771 394.344,248.924 394.355 C 249.237 394.378,252.557 393.554,252.691 393.420 C 252.864 393.247,252.151 393.383,250.417 393.854 M155.938 395.526 C 156.510 395.673,157.167 395.791,157.396 395.789 C 157.625 395.786,157.344 395.663,156.771 395.516 C 156.198 395.369,155.542 395.250,155.313 395.253 C 155.083 395.256,155.365 395.378,155.938 395.526 M241.875 395.729 C 240.672 395.991,239.839 396.216,240.023 396.228 C 240.402 396.253,244.640 395.417,244.774 395.290 C 244.952 395.122,244.000 395.266,241.875 395.729 M163.021 396.887 C 164.076 397.105,164.929 397.095,164.063 396.875 C 163.719 396.788,163.156 396.716,162.813 396.715 C 162.287 396.715,162.320 396.742,163.021 396.887 M235.938 396.875 C 235.380 397.017,235.369 397.034,235.833 397.034 C 236.120 397.034,236.635 396.962,236.979 396.875 C 237.537 396.733,237.548 396.716,237.083 396.716 C 236.797 396.716,236.281 396.788,235.938 396.875 M233.542 397.292 C 232.839 397.440,232.835 397.445,233.438 397.448 C 233.781 397.449,234.344 397.379,234.688 397.292 C 235.552 397.072,234.587 397.072,233.542 397.292 M167.760 397.644 C 167.961 397.696,168.289 397.696,168.490 397.644 C 168.690 397.591,168.526 397.548,168.125 397.548 C 167.724 397.548,167.560 397.591,167.760 397.644 M231.719 397.644 C 231.919 397.696,232.247 397.696,232.448 397.644 C 232.648 397.591,232.484 397.548,232.083 397.548 C 231.682 397.548,231.518 397.591,231.719 397.644 M169.219 397.852 C 169.419 397.904,169.747 397.904,169.948 397.852 C 170.148 397.800,169.984 397.757,169.583 397.757 C 169.182 397.757,169.018 397.800,169.219 397.852 M230.260 397.852 C 230.461 397.904,230.789 397.904,230.990 397.852 C 231.190 397.800,231.026 397.757,230.625 397.757 C 230.224 397.757,230.060 397.800,230.260 397.852 M170.677 398.060 C 170.878 398.113,171.206 398.113,171.406 398.060 C 171.607 398.008,171.443 397.965,171.042 397.965 C 170.641 397.965,170.477 398.008,170.677 398.060 M228.700 398.064 C 228.959 398.114,229.334 398.112,229.534 398.060 C 229.733 398.008,229.521 397.967,229.063 397.969 C 228.604 397.972,228.441 398.014,228.700 398.064 M172.135 398.269 C 172.336 398.321,172.664 398.321,172.865 398.269 C 173.065 398.216,172.901 398.173,172.500 398.173 C 172.099 398.173,171.935 398.216,172.135 398.269 M227.034 398.272 C 227.293 398.322,227.668 398.320,227.867 398.268 C 228.066 398.216,227.854 398.175,227.396 398.178 C 226.938 398.180,226.775 398.223,227.034 398.272 M173.909 398.481 C 174.168 398.531,174.543 398.529,174.742 398.476 C 174.941 398.424,174.729 398.384,174.271 398.386 C 173.813 398.388,173.650 398.431,173.909 398.481 M225.156 398.480 C 225.414 398.530,225.836 398.530,226.094 398.480 C 226.352 398.431,226.141 398.390,225.625 398.390 C 225.109 398.390,224.898 398.431,225.156 398.480 M175.575 398.689 C 175.834 398.739,176.209 398.737,176.409 398.685 C 176.608 398.633,176.396 398.592,175.938 398.594 C 175.479 398.597,175.316 398.639,175.575 398.689 M221.771 398.750 C 220.781 398.886,220.771 398.893,221.563 398.905 C 222.021 398.912,222.911 398.846,223.542 398.759 C 224.670 398.603,224.673 398.600,223.750 398.604 C 223.234 398.606,222.344 398.671,221.771 398.750 M177.240 398.897 C 177.497 398.947,177.919 398.947,178.177 398.897 C 178.435 398.847,178.224 398.807,177.708 398.807 C 177.193 398.807,176.982 398.847,177.240 398.897 M179.531 399.105 C 179.789 399.155,180.211 399.155,180.469 399.105 C 180.727 399.056,180.516 399.015,180.000 399.015 C 179.484 399.015,179.273 399.056,179.531 399.105 M219.222 399.108 C 219.538 399.156,220.007 399.154,220.263 399.105 C 220.520 399.056,220.260 399.016,219.688 399.018 C 219.115 399.019,218.905 399.060,219.222 399.108 M181.927 399.316 C 182.242 399.364,182.758 399.364,183.073 399.316 C 183.388 399.268,183.130 399.229,182.500 399.229 C 181.870 399.229,181.612 399.268,181.927 399.316 M216.719 399.316 C 217.034 399.364,217.549 399.364,217.865 399.316 C 218.180 399.268,217.922 399.229,217.292 399.229 C 216.661 399.229,216.404 399.268,216.719 399.316 M184.740 399.526 C 185.112 399.572,185.721 399.572,186.094 399.526 C 186.466 399.479,186.161 399.442,185.417 399.442 C 184.672 399.442,184.367 399.479,184.740 399.526 M213.698 399.526 C 214.070 399.572,214.680 399.572,215.052 399.526 C 215.424 399.479,215.120 399.442,214.375 399.442 C 213.630 399.442,213.326 399.479,213.698 399.526 M188.183 399.737 C 188.731 399.780,189.575 399.779,190.058 399.736 C 190.542 399.692,190.094 399.657,189.063 399.657 C 188.031 399.658,187.636 399.694,188.183 399.737 M210.260 399.735 C 210.690 399.780,211.393 399.780,211.823 399.735 C 212.253 399.690,211.901 399.653,211.042 399.653 C 210.182 399.653,209.831 399.690,210.260 399.735 M196.628 399.948 C 198.842 399.981,202.404 399.981,204.545 399.948 C 206.686 399.914,204.875 399.886,200.521 399.886 C 196.167 399.886,194.415 399.914,196.628 399.948 " stroke="none" fill="#9c9c9c" fill-rule="evenodd"></path><path id="path1" d="M193.646 0.126 C 146.215 1.560,104.707 17.572,70.313 47.702 C 29.204 83.713,5.738 128.058,1.051 178.589 C -5.235 246.343,17.425 304.798,67.301 349.494 C 110.276 388.005,163.800 404.906,222.917 398.632 C 268.291 393.816,307.269 375.040,340.526 341.979 C 380.157 302.581,399.800 255.559,399.790 200.104 C 399.781 144.119,379.824 96.558,339.865 57.286 C 299.513 17.629,250.349 -1.590,193.646 0.126 M213.542 19.369 C 258.195 22.683,294.410 39.128,326.636 70.726 C 359.878 103.320,378.104 142.999,380.610 188.229 C 383.397 238.538,368.896 281.734,336.899 318.432 L 334.945 320.674 292.042 277.771 L 249.139 234.868 250.593 232.694 C 263.186 213.869,263.413 187.416,251.145 168.150 C 242.126 153.986,228.602 144.514,212.188 140.865 C 206.978 139.707,195.539 139.472,190.521 140.419 C 180.762 142.262,174.425 144.659,167.708 149.049 C 166.391 149.911,165.219 150.618,165.104 150.620 C 164.722 150.629,79.273 65.017,79.484 64.837 C 79.596 64.742,80.578 63.865,81.667 62.889 C 101.168 45.401,123.882 32.940,149.896 25.460 C 168.054 20.238,193.036 17.848,213.542 19.369 M149.538 166.911 C 135.566 187.824,136.473 216.353,151.741 236.190 C 171.344 261.657,206.300 267.816,232.810 250.472 L 234.892 249.111 277.646 292.003 C 301.160 315.594,320.403 334.955,320.408 335.026 C 320.419 335.185,316.166 338.836,312.188 342.085 C 276.217 371.460,230.315 384.751,180.938 380.089 C 142.226 376.434,108.136 361.210,78.728 334.446 C 34.620 294.300,14.583 242.552,19.696 181.979 C 22.838 144.766,37.621 110.303,62.620 81.917 L 64.876 79.355 107.787 122.266 L 150.697 165.176 149.538 166.911 M205.417 158.639 C 222.580 160.628,237.268 174.217,240.722 191.301 C 246.801 221.375,221.047 246.882,190.842 240.702 C 175.617 237.586,162.327 224.340,159.175 209.137 C 153.210 180.369,176.209 155.254,205.417 158.639 M195.521 166.474 C 190.609 167.151,185.903 169.254,181.827 172.592 C 180.832 173.407,180.766 173.142,182.756 176.301 C 185.395 180.490,185.750 180.589,189.688 178.242 C 199.422 172.438,209.954 177.571,206.984 186.672 C 206.189 189.110,203.705 192.024,200.499 194.280 C 193.319 199.333,192.590 200.730,193.314 208.050 C 193.554 210.473,193.750 212.512,193.750 212.582 C 193.750 213.032,201.870 212.694,201.972 212.240 C 202.029 211.982,202.322 210.224,202.623 208.333 C 203.386 203.540,203.739 203.033,209.167 198.957 C 215.680 194.066,218.115 190.113,218.472 183.854 C 219.132 172.252,209.042 164.612,195.521 166.474 M194.990 224.241 C 187.392 226.958,189.334 238.333,197.396 238.333 C 205.271 238.333,207.626 228.115,200.564 224.586 C 199.152 223.880,196.463 223.714,194.990 224.241 " stroke="none" fill="#999999" fill-rule="evenodd"></path></g></svg>