<svg id="svg" xmlns="http://www.w3.org/2000/svg" xmlns:xlink="http://www.w3.org/1999/xlink" width="400" height="400" viewBox="0, 0, 400,400" version="1.1"><g id="svgg"><path id="path0" d="M186.771 0.646 C 125.928 4.436,73.600 33.952,36.104 85.630 C 4.766 128.822,-6.798 185.435,4.189 241.875 C 16.339 304.291,63.320 360.765,124.161 386.088 C 140.333 392.820,157.691 397.111,178.438 399.509 C 183.071 400.044,214.408 400.180,219.675 399.688 C 245.487 397.276,265.918 391.561,289.624 380.121 C 318.594 366.142,349.028 338.904,368.440 309.583 C 386.331 282.559,396.435 253.471,399.590 219.909 C 400.211 213.304,400.203 187.274,399.577 180.510 C 395.699 138.549,379.749 101.348,352.195 70.000 C 314.332 26.922,267.492 3.592,212.917 0.626 C 208.459 0.384,190.760 0.397,186.771 0.646 M217.604 19.972 C 264.963 24.450,302.875 43.819,336.177 80.550 C 370.589 118.505,386.165 168.344,380.314 221.774 C 376.306 258.370,362.556 289.656,337.854 318.385 C 336.598 319.846,335.500 321.042,335.415 321.042 C 335.330 321.042,316.026 301.737,292.518 278.143 L 249.777 235.245 251.329 232.883 C 261.025 218.130,263.375 198.200,257.494 180.608 C 252.402 165.375,238.964 150.999,223.953 144.726 C 205.670 137.086,183.467 139.090,167.411 149.829 L 165.552 151.072 122.650 108.171 L 79.749 65.270 82.739 62.677 C 113.523 35.986,147.864 22.057,188.958 19.593 C 194.690 19.249,212.442 19.484,217.604 19.972 M149.942 167.212 C 137.420 185.132,136.722 211.640,148.260 231.077 C 165.813 260.649,205.028 269.838,233.391 251.026 L 235.288 249.767 278.180 292.660 L 321.072 335.552 318.297 337.936 C 300.170 353.505,282.469 363.923,261.272 371.497 C 249.486 375.708,235.614 378.857,222.500 380.299 C 213.605 381.276,212.043 381.350,200.208 381.352 C 189.258 381.354,187.812 381.299,180.729 380.610 C 134.329 376.096,93.946 354.503,61.532 316.875 C 34.968 286.038,20.787 249.323,19.367 207.708 C 17.709 159.152,32.423 116.990,63.197 82.119 L 65.280 79.759 108.185 122.664 L 151.090 165.569 149.942 167.212 M207.739 159.365 C 224.229 162.202,237.865 175.425,241.143 191.758 C 247.182 221.852,221.477 247.287,191.259 241.117 C 177.870 238.384,165.320 227.303,160.971 214.375 C 150.734 183.943,176.237 153.946,207.739 159.365 " stroke="none" fill="#9c9c9c" fill-rule="evenodd"></path><path id="path1" d="M207.448 0.359 C 207.820 0.405,208.430 0.405,208.802 0.359 C 209.174 0.313,208.870 0.275,208.125 0.275 C 207.380 0.275,207.076 0.313,207.448 0.359 M194.017 19.528 C 194.564 19.571,195.408 19.571,195.892 19.527 C 196.375 19.484,195.927 19.448,194.896 19.449 C 193.865 19.450,193.469 19.485,194.017 19.528 M207.245 19.528 C 207.735 19.572,208.485 19.571,208.912 19.526 C 209.338 19.482,208.938 19.446,208.021 19.446 C 207.104 19.447,206.755 19.484,207.245 19.528 M65.299 52.552 L 64.688 53.229 65.365 52.617 C 65.996 52.047,66.137 51.875,65.976 51.875 C 65.941 51.875,65.636 52.180,65.299 52.552 M336.458 53.646 C 336.847 54.047,337.212 54.375,337.269 54.375 C 337.327 54.375,337.055 54.047,336.667 53.646 C 336.278 53.245,335.913 52.917,335.856 52.917 C 335.798 52.917,336.070 53.245,336.458 53.646 M58.542 59.063 C 56.309 61.297,54.530 63.125,54.587 63.125 C 54.645 63.125,56.518 61.297,58.750 59.063 C 60.982 56.828,62.762 55.000,62.704 55.000 C 62.647 55.000,60.774 56.828,58.542 59.063 M341.563 58.542 C 342.819 59.802,343.894 60.833,343.951 60.833 C 344.009 60.833,343.027 59.802,341.771 58.542 C 340.514 57.281,339.439 56.250,339.382 56.250 C 339.325 56.250,340.306 57.281,341.563 58.542 M346.771 63.958 C 347.218 64.417,347.631 64.792,347.689 64.792 C 347.746 64.792,347.427 64.417,346.979 63.958 C 346.532 63.500,346.119 63.125,346.061 63.125 C 346.004 63.125,346.323 63.500,346.771 63.958 M80.035 65.062 C 79.862 65.270,89.637 75.146,122.770 108.239 L 165.729 151.146 122.859 108.224 C 89.039 74.362,80.044 65.248,80.245 65.047 C 80.385 64.906,80.446 64.792,80.380 64.792 C 80.313 64.792,80.158 64.913,80.035 65.062 M51.758 66.094 L 51.146 66.771 51.823 66.159 C 52.454 65.589,52.596 65.417,52.435 65.417 C 52.399 65.417,52.094 65.721,51.758 66.094 M321.667 66.146 C 322.055 66.547,322.420 66.875,322.478 66.875 C 322.535 66.875,322.264 66.547,321.875 66.146 C 321.486 65.745,321.121 65.417,321.064 65.417 C 321.007 65.417,321.278 65.745,321.667 66.146 M325.000 69.271 C 325.622 69.901,326.178 70.417,326.236 70.417 C 326.293 70.417,325.831 69.901,325.208 69.271 C 324.586 68.641,324.030 68.125,323.973 68.125 C 323.915 68.125,324.378 68.641,325.000 69.271 M331.458 75.729 C 332.081 76.359,332.637 76.875,332.694 76.875 C 332.751 76.875,332.289 76.359,331.667 75.729 C 331.044 75.099,330.488 74.583,330.431 74.583 C 330.374 74.583,330.836 75.099,331.458 75.729 M334.167 78.607 C 334.167 78.643,334.471 78.947,334.844 79.284 L 335.521 79.896 334.909 79.219 C 334.339 78.588,334.167 78.446,334.167 78.607 M198.802 140.155 C 199.690 140.194,201.143 140.194,202.031 140.155 C 202.919 140.116,202.193 140.084,200.417 140.084 C 198.641 140.084,197.914 140.116,198.802 140.155 M242.708 157.396 C 243.447 158.141,244.097 158.750,244.155 158.750 C 244.212 158.750,243.655 158.141,242.917 157.396 C 242.178 156.651,241.528 156.042,241.470 156.042 C 241.413 156.042,241.970 156.651,242.708 157.396 M171.140 170.885 L 169.688 172.396 171.198 170.943 C 172.601 169.594,172.803 169.375,172.651 169.375 C 172.619 169.375,171.939 170.055,171.140 170.885 M381.315 195.938 C 381.316 196.625,381.355 196.881,381.401 196.507 C 381.447 196.132,381.446 195.570,381.399 195.257 C 381.351 194.944,381.313 195.250,381.315 195.938 M260.678 197.813 C 260.680 198.271,260.723 198.434,260.772 198.175 C 260.822 197.916,260.820 197.541,260.768 197.341 C 260.716 197.142,260.675 197.354,260.678 197.813 M241.937 200.417 C 241.937 201.047,241.976 201.305,242.024 200.990 C 242.072 200.674,242.072 200.159,242.024 199.844 C 241.976 199.529,241.937 199.786,241.937 200.417 M158.798 202.500 C 158.798 202.901,158.841 203.065,158.894 202.865 C 158.946 202.664,158.946 202.336,158.894 202.135 C 158.841 201.935,158.798 202.099,158.798 202.500 M260.678 202.604 C 260.680 203.063,260.723 203.225,260.772 202.966 C 260.822 202.707,260.820 202.332,260.768 202.133 C 260.716 201.934,260.675 202.146,260.678 202.604 M381.315 204.479 C 381.316 205.167,381.355 205.423,381.401 205.048 C 381.447 204.674,381.446 204.111,381.399 203.798 C 381.351 203.485,381.313 203.792,381.315 204.479 M0.261 209.271 C 0.263 209.729,0.306 209.892,0.356 209.633 C 0.406 209.374,0.404 208.999,0.351 208.800 C 0.299 208.600,0.259 208.813,0.261 209.271 M19.428 209.479 C 19.430 209.938,19.473 210.100,19.522 209.841 C 19.572 209.582,19.570 209.207,19.518 209.008 C 19.466 208.809,19.425 209.021,19.428 209.479 M381.090 210.417 C 381.090 210.818,381.133 210.982,381.185 210.781 C 381.238 210.581,381.238 210.253,381.185 210.052 C 381.133 209.852,381.090 210.016,381.090 210.417 M168.958 227.774 C 168.958 227.809,169.263 228.114,169.635 228.451 L 170.313 229.063 169.701 228.385 C 169.130 227.754,168.958 227.613,168.958 227.774 M229.572 229.948 L 228.854 230.729 229.635 230.011 C 230.363 229.343,230.512 229.167,230.353 229.167 C 230.319 229.167,229.967 229.518,229.572 229.948 M171.875 230.690 C 171.875 230.726,172.180 231.031,172.552 231.367 L 173.229 231.979 172.617 231.302 C 172.047 230.671,171.875 230.529,171.875 230.690 M271.146 256.667 C 282.947 268.469,292.650 278.125,292.708 278.125 C 292.765 278.125,283.156 268.469,271.354 256.667 C 259.553 244.865,249.850 235.208,249.792 235.208 C 249.735 235.208,259.344 244.865,271.146 256.667 M199.115 242.029 C 199.831 242.070,201.003 242.070,201.719 242.029 C 202.435 241.989,201.849 241.955,200.417 241.955 C 198.984 241.955,198.398 241.989,199.115 242.029 M159.375 244.857 C 159.375 244.893,159.680 245.197,160.052 245.534 L 160.729 246.146 160.117 245.469 C 159.547 244.838,159.375 244.696,159.375 244.857 M66.875 322.813 C 67.264 323.214,67.629 323.542,67.686 323.542 C 67.743 323.542,67.472 323.214,67.083 322.813 C 66.695 322.411,66.330 322.083,66.272 322.083 C 66.215 322.083,66.486 322.411,66.875 322.813 M71.979 328.125 C 73.695 329.844,75.146 331.250,75.203 331.250 C 75.260 331.250,73.903 329.844,72.188 328.125 C 70.472 326.406,69.021 325.000,68.964 325.000 C 68.906 325.000,70.263 326.406,71.979 328.125 M77.917 333.854 C 78.305 334.255,78.670 334.583,78.728 334.583 C 78.785 334.583,78.514 334.255,78.125 333.854 C 77.736 333.453,77.371 333.125,77.314 333.125 C 77.257 333.125,77.528 333.453,77.917 333.854 M52.500 335.521 C 52.889 335.922,53.254 336.250,53.311 336.250 C 53.368 336.250,53.097 335.922,52.708 335.521 C 52.320 335.120,51.955 334.792,51.897 334.792 C 51.840 334.792,52.111 335.120,52.500 335.521 M347.388 336.302 L 346.354 337.396 347.448 336.362 C 348.049 335.793,348.542 335.301,348.542 335.268 C 348.542 335.113,348.349 335.286,347.388 336.302 M79.792 335.482 C 79.792 335.518,80.096 335.822,80.469 336.159 L 81.146 336.771 80.534 336.094 C 79.964 335.463,79.792 335.321,79.792 335.482 M56.042 339.271 C 56.780 340.016,57.431 340.625,57.488 340.625 C 57.545 340.625,56.988 340.016,56.250 339.271 C 55.512 338.526,54.861 337.917,54.804 337.917 C 54.746 337.917,55.303 338.526,56.042 339.271 M341.246 342.656 L 339.271 344.688 341.302 342.712 C 343.189 340.878,343.428 340.625,343.277 340.625 C 343.246 340.625,342.332 341.539,341.246 342.656 M61.458 344.688 C 62.197 345.432,62.847 346.042,62.905 346.042 C 62.962 346.042,62.405 345.432,61.667 344.688 C 60.928 343.943,60.278 343.333,60.220 343.333 C 60.163 343.333,60.720 343.943,61.458 344.688 M336.030 347.656 L 335.313 348.438 336.094 347.720 C 336.523 347.325,336.875 346.973,336.875 346.938 C 336.875 346.779,336.699 346.929,336.030 347.656 M65.000 348.021 C 65.389 348.422,65.754 348.750,65.811 348.750 C 65.868 348.750,65.597 348.422,65.208 348.021 C 64.820 347.620,64.455 347.292,64.397 347.292 C 64.340 347.292,64.611 347.620,65.000 348.021 M333.633 349.844 L 333.021 350.521 333.698 349.909 C 334.329 349.339,334.471 349.167,334.310 349.167 C 334.274 349.167,333.969 349.471,333.633 349.844 M188.177 381.185 C 188.378 381.238,188.706 381.238,188.906 381.185 C 189.107 381.133,188.943 381.090,188.542 381.090 C 188.141 381.090,187.977 381.133,188.177 381.185 M192.868 381.401 C 193.243 381.447,193.805 381.446,194.118 381.399 C 194.431 381.351,194.125 381.313,193.438 381.315 C 192.750 381.316,192.494 381.355,192.868 381.401 M206.510 381.394 C 206.711 381.446,207.039 381.446,207.240 381.394 C 207.440 381.341,207.276 381.298,206.875 381.298 C 206.474 381.298,206.310 381.341,206.510 381.394 " stroke="none" fill="#9c9c9c" fill-rule="evenodd"></path><path id="path2" d="M195.573 0.364 C 197.664 0.398,201.086 0.398,203.177 0.364 C 205.268 0.330,203.557 0.302,199.375 0.302 C 195.193 0.302,193.482 0.330,195.573 0.364 M210.992 0.564 C 211.251 0.614,211.626 0.612,211.825 0.560 C 212.025 0.508,211.813 0.467,211.354 0.469 C 210.896 0.472,210.733 0.514,210.992 0.564 M192.135 19.519 C 192.336 19.571,192.664 19.571,192.865 19.519 C 193.065 19.466,192.901 19.423,192.500 19.423 C 192.099 19.423,191.935 19.466,192.135 19.519 M187.969 19.727 C 188.169 19.779,188.497 19.779,188.698 19.727 C 188.898 19.675,188.734 19.632,188.333 19.632 C 187.932 19.632,187.768 19.675,187.969 19.727 M212.969 19.727 C 213.169 19.779,213.497 19.779,213.698 19.727 C 213.898 19.675,213.734 19.632,213.333 19.632 C 212.932 19.632,212.768 19.675,212.969 19.727 M63.750 54.063 C 63.244 54.578,62.877 55.000,62.934 55.000 C 62.991 55.000,63.452 54.578,63.958 54.063 C 64.464 53.547,64.832 53.125,64.774 53.125 C 64.717 53.125,64.256 53.547,63.750 54.063 M338.116 55.260 C 338.980 56.180,339.167 56.346,339.167 56.189 C 339.167 56.156,338.721 55.710,338.177 55.200 L 337.188 54.271 338.116 55.260 M344.896 62.083 C 345.460 62.656,345.969 63.125,346.026 63.125 C 346.083 63.125,345.668 62.656,345.104 62.083 C 344.540 61.510,344.031 61.042,343.974 61.042 C 343.917 61.042,344.332 61.510,344.896 62.083 M53.430 64.427 L 52.396 65.521 53.490 64.487 C 54.091 63.918,54.583 63.426,54.583 63.393 C 54.583 63.238,54.390 63.411,53.430 64.427 M347.708 65.065 C 347.708 65.101,348.013 65.406,348.385 65.742 L 349.063 66.354 348.451 65.677 C 347.880 65.046,347.708 64.904,347.708 65.065 M323.125 67.396 C 323.514 67.797,323.879 68.125,323.936 68.125 C 323.993 68.125,323.722 67.797,323.333 67.396 C 322.945 66.995,322.580 66.667,322.522 66.667 C 322.465 66.667,322.736 66.995,323.125 67.396 M328.229 72.292 C 329.371 73.438,330.352 74.375,330.409 74.375 C 330.466 74.375,329.579 73.438,328.438 72.292 C 327.296 71.146,326.315 70.208,326.258 70.208 C 326.201 70.208,327.088 71.146,328.229 72.292 M333.333 77.604 C 333.722 78.005,334.087 78.333,334.144 78.333 C 334.202 78.333,333.930 78.005,333.542 77.604 C 333.153 77.203,332.788 76.875,332.731 76.875 C 332.673 76.875,332.945 77.203,333.333 77.604 M108.021 122.708 C 131.625 146.370,150.980 165.702,151.033 165.668 C 151.085 165.635,131.773 146.276,108.117 122.648 L 65.105 79.688 108.021 122.708 M240.833 155.729 C 241.222 156.130,241.587 156.458,241.644 156.458 C 241.702 156.458,241.430 156.130,241.042 155.729 C 240.653 155.328,240.288 155.000,240.231 155.000 C 240.173 155.000,240.445 155.328,240.833 155.729 M199.331 158.904 C 200.052 158.945,201.177 158.945,201.831 158.904 C 202.485 158.863,201.896 158.829,200.521 158.830 C 199.146 158.830,198.610 158.864,199.331 158.904 M244.167 159.024 C 244.167 159.059,244.471 159.364,244.844 159.701 L 245.521 160.313 244.909 159.635 C 244.339 159.004,244.167 158.863,244.167 159.024 M229.583 170.938 C 230.552 171.911,231.392 172.708,231.449 172.708 C 231.506 172.708,230.761 171.911,229.792 170.938 C 228.823 169.964,227.983 169.167,227.926 169.167 C 227.869 169.167,228.614 169.964,229.583 170.938 M19.632 186.875 C 19.632 187.276,19.675 187.440,19.727 187.240 C 19.779 187.039,19.779 186.711,19.727 186.510 C 19.675 186.310,19.632 186.474,19.632 186.875 M19.423 191.042 C 19.423 191.443,19.466 191.607,19.519 191.406 C 19.571 191.206,19.571 190.878,19.519 190.677 C 19.466 190.477,19.423 190.641,19.423 191.042 M0.275 192.917 C 0.275 193.661,0.313 193.966,0.359 193.594 C 0.405 193.221,0.405 192.612,0.359 192.240 C 0.313 191.867,0.275 192.172,0.275 192.917 M381.310 193.854 C 381.311 194.427,381.352 194.637,381.399 194.320 C 381.447 194.003,381.446 193.535,381.397 193.278 C 381.347 193.022,381.308 193.281,381.310 193.854 M140.053 197.813 C 140.055 198.271,140.098 198.434,140.147 198.175 C 140.197 197.916,140.195 197.541,140.143 197.341 C 140.091 197.142,140.050 197.354,140.053 197.813 M241.923 198.750 C 241.923 199.151,241.966 199.315,242.019 199.115 C 242.071 198.914,242.071 198.586,242.019 198.385 C 241.966 198.185,241.923 198.349,241.923 198.750 M19.249 201.458 C 19.249 203.120,19.282 203.799,19.321 202.969 C 19.361 202.138,19.361 200.779,19.321 199.948 C 19.282 199.117,19.249 199.797,19.249 201.458 M260.698 200.208 C 260.698 201.182,260.734 201.581,260.778 201.094 C 260.821 200.607,260.821 199.810,260.778 199.323 C 260.734 198.836,260.698 199.234,260.698 200.208 M241.923 202.083 C 241.923 202.484,241.966 202.648,242.019 202.448 C 242.071 202.247,242.071 201.919,242.019 201.719 C 241.966 201.518,241.923 201.682,241.923 202.083 M140.053 203.021 C 140.055 203.479,140.098 203.642,140.147 203.383 C 140.197 203.124,140.195 202.749,140.143 202.550 C 140.091 202.350,140.050 202.563,140.053 203.021 M381.303 206.354 C 381.305 206.813,381.348 206.975,381.397 206.716 C 381.447 206.457,381.445 206.082,381.393 205.883 C 381.341 205.684,381.300 205.896,381.303 206.354 M0.268 207.604 C 0.269 208.177,0.310 208.387,0.358 208.070 C 0.406 207.753,0.404 207.285,0.355 207.028 C 0.306 206.772,0.266 207.031,0.268 207.604 M19.423 210.833 C 19.423 211.234,19.466 211.398,19.519 211.198 C 19.571 210.997,19.571 210.669,19.519 210.469 C 19.466 210.268,19.423 210.432,19.423 210.833 M170.208 229.232 C 170.208 229.268,170.513 229.572,170.885 229.909 L 171.563 230.521 170.951 229.844 C 170.380 229.213,170.208 229.071,170.208 229.232 M157.604 243.125 C 158.515 244.042,159.308 244.792,159.365 244.792 C 159.423 244.792,158.724 244.042,157.813 243.125 C 156.901 242.208,156.109 241.458,156.051 241.458 C 155.994 241.458,156.693 242.208,157.604 243.125 M235.026 249.844 C 235.078 249.872,254.477 269.208,278.134 292.813 L 321.146 335.729 278.229 292.760 C 254.625 269.128,235.227 249.792,235.122 249.792 C 235.017 249.792,234.973 249.815,235.026 249.844 M313.854 299.583 C 325.656 311.385,335.359 321.042,335.416 321.042 C 335.473 321.042,325.864 311.385,314.063 299.583 C 302.261 287.781,292.558 278.125,292.501 278.125 C 292.443 278.125,302.053 287.781,313.854 299.583 M67.708 323.815 C 67.708 323.851,68.013 324.156,68.385 324.492 L 69.063 325.104 68.451 324.427 C 67.880 323.796,67.708 323.654,67.708 323.815 M75.833 331.940 C 75.833 331.976,76.138 332.281,76.510 332.617 L 77.188 333.229 76.576 332.552 C 76.005 331.921,75.833 331.779,75.833 331.940 M54.063 337.083 C 54.510 337.542,54.923 337.917,54.980 337.917 C 55.038 337.917,54.718 337.542,54.271 337.083 C 53.823 336.625,53.410 336.250,53.353 336.250 C 53.296 336.250,53.615 336.625,54.063 337.083 M344.792 338.854 C 343.938 339.714,343.286 340.417,343.344 340.417 C 343.401 340.417,344.146 339.714,345.000 338.854 C 345.854 337.995,346.505 337.292,346.448 337.292 C 346.391 337.292,345.645 337.995,344.792 338.854 M58.438 341.667 C 59.002 342.240,59.510 342.708,59.568 342.708 C 59.625 342.708,59.210 342.240,58.646 341.667 C 58.082 341.094,57.573 340.625,57.516 340.625 C 57.458 340.625,57.873 341.094,58.438 341.667 M337.910 345.781 L 336.771 346.979 337.969 345.840 C 338.628 345.214,339.167 344.675,339.167 344.643 C 339.167 344.488,338.967 344.668,337.910 345.781 M63.125 346.107 C 63.125 346.143,63.430 346.447,63.802 346.784 L 64.479 347.396 63.867 346.719 C 63.297 346.088,63.125 345.946,63.125 346.107 M191.302 381.394 C 191.503 381.446,191.831 381.446,192.031 381.394 C 192.232 381.341,192.068 381.298,191.667 381.298 C 191.266 381.298,191.102 381.341,191.302 381.394 M207.865 381.397 C 208.122 381.447,208.544 381.447,208.802 381.397 C 209.060 381.347,208.849 381.307,208.333 381.307 C 207.818 381.307,207.607 381.347,207.865 381.397 " stroke="none" fill="#9c9c9c" fill-rule="evenodd"></path></g></svg>